<svg width="16" height="16" viewBox="0 0 16 16" fill="none" xmlns="http://www.w3.org/2000/svg">
<mask id="mask0_3451_5543" style="mask-type:alpha" maskUnits="userSpaceOnUse" x="0" y="0" width="16" height="16">
<rect width="16" height="16" fill="#D9D9D9"/>
</mask>
<g mask="url(#mask0_3451_5543)">
<path d="M7.50033 11.167H8.50029V8.50029H11.167V7.50033H8.50029V4.83366H7.50033V7.50033H4.83366V8.50029H7.50033V11.167ZM8.00143 14.3336C7.12547 14.3336 6.30211 14.1674 5.53136 13.835C4.76059 13.5025 4.09014 13.0513 3.51999 12.4815C2.94984 11.9116 2.49846 11.2414 2.16588 10.471C1.83329 9.70056 1.66699 8.87738 1.66699 8.00143C1.66699 7.12547 1.83321 6.30211 2.16566 5.53136C2.4981 4.76059 2.94927 4.09014 3.51916 3.51999C4.08906 2.94984 4.75922 2.49847 5.52964 2.16588C6.30005 1.83329 7.12324 1.66699 7.99919 1.66699C8.87515 1.66699 9.6985 1.83322 10.4693 2.16566C11.24 2.4981 11.9105 2.94927 12.4806 3.51916C13.0508 4.08906 13.5022 4.75922 13.8347 5.52964C14.1673 6.30005 14.3336 7.12324 14.3336 7.99919C14.3336 8.87515 14.1674 9.6985 13.835 10.4693C13.5025 11.24 13.0513 11.9105 12.4815 12.4806C11.9116 13.0508 11.2414 13.5022 10.471 13.8347C9.70056 14.1673 8.87738 14.3336 8.00143 14.3336ZM8.00031 13.3336C9.4892 13.3336 10.7503 12.817 11.7836 11.7836C12.817 10.7503 13.3336 9.4892 13.3336 8.00031C13.3336 6.51142 12.817 5.25031 11.7836 4.21698C10.7503 3.18364 9.4892 2.66698 8.00031 2.66698C6.51142 2.66698 5.25031 3.18364 4.21698 4.21698C3.18364 5.25031 2.66698 6.51142 2.66698 8.00031C2.66698 9.4892 3.18364 10.7503 4.21698 11.7836C5.25031 12.817 6.51142 13.3336 8.00031 13.3336Z" fill="white"/>
</g>
</svg>
