<svg width="16" height="16" viewBox="0 0 16 16" fill="none" xmlns="http://www.w3.org/2000/svg">
<mask id="mask0_3531_3142" style="mask-type:alpha" maskUnits="userSpaceOnUse" x="0" y="0" width="16" height="16">
<rect width="16" height="16" fill="#D9D9D9"/>
</mask>
<g mask="url(#mask0_3531_3142)">
<path d="M4.87183 13.6675C4.53939 13.6675 4.25539 13.5497 4.01983 13.3143C3.78439 13.0787 3.66667 12.7947 3.66667 12.4623V4.0008H3V3.0008H6V2.41113H10V3.0008H13V4.0008H12.3333V12.4623C12.3333 12.7991 12.2167 13.0841 11.9833 13.3175C11.75 13.5508 11.4649 13.6675 11.1282 13.6675H4.87183ZM11.3333 4.0008H4.66667V12.4623C4.66667 12.5222 4.68589 12.5714 4.72433 12.6098C4.76278 12.6482 4.81194 12.6675 4.87183 12.6675H11.1282C11.1795 12.6675 11.2265 12.6461 11.2692 12.6033C11.3119 12.5606 11.3333 12.5136 11.3333 12.4623V4.0008ZM6.26933 11.3341H7.26917V5.33413H6.26933V11.3341ZM8.73083 11.3341H9.73067V5.33413H8.73083V11.3341Z" fill="#FF0000"/>
</g>
</svg>
