<svg width="16" height="16" viewBox="0 0 16 16" fill="none" xmlns="http://www.w3.org/2000/svg">
<path fill-rule="evenodd" clip-rule="evenodd" d="M12.8092 5.19347C12.9315 5.31816 13 5.48584 13 5.66049C13 5.83513 12.9315 6.00281 12.8092 6.12751L8 10.9997L3.19077 6.12751C3.06849 6.00281 3 5.83513 3 5.66049C3 5.48584 3.06849 5.31816 3.19077 5.19347C3.25091 5.13221 3.32265 5.08354 3.40181 5.05033C3.48097 5.01711 3.56595 5 3.65179 5C3.73764 5 3.82262 5.01711 3.90178 5.05033C3.98094 5.08354 4.05268 5.13221 4.11282 5.19347L8 9.13065L11.8872 5.19347C11.9473 5.13221 12.0191 5.08354 12.0982 5.05033C12.1774 5.01711 12.2624 5 12.3482 5C12.434 5 12.519 5.01711 12.5982 5.05033C12.6773 5.08354 12.7491 5.13221 12.8092 5.19347Z" fill="#696A70"/>
</svg>
