<svg width="176" height="60" viewBox="0 0 176 60" fill="none" xmlns="http://www.w3.org/2000/svg">
<g clip-path="url(#clip0_2709_2552)">
<path d="M45.6388 22.9892C42.3223 22.8803 38.1504 19.6118 32.9084 21.7906V12.5303C40.6108 4.57693 46.7084 18.5226 56.1224 17.1063C55.4805 18.4137 54.5179 20.2156 50.1319 19.1264L52.0575 21.5826C50.1319 22.2363 48.3133 21.1379 46.3877 20.0482C45.7458 21.1379 46.9225 22.1182 46.9225 22.8808C46.6013 22.8803 46.0665 22.9892 45.6388 22.9892ZM11.5577 22.7714C11.5577 22.0089 12.7344 21.0281 12.0925 19.9389C10.1669 21.1374 8.34835 22.2358 6.42273 21.4732L8.34835 19.0171C3.9623 20.1068 2.99972 18.3043 2.35785 16.9969C11.6648 18.4132 17.7623 4.46806 25.5719 12.421V21.6818C19.688 19.1763 15.0883 23.97 11.5577 22.7714Z" fill="white"/>
<path d="M29.2693 9.89613C31.9206 9.89613 34.0699 7.6808 34.0699 4.94806C34.0699 2.21532 31.9206 0 29.2693 0C26.618 0 24.4687 2.21532 24.4687 4.94806C24.4687 7.6808 26.618 9.89613 29.2693 9.89613Z" fill="white"/>
<path d="M29.2692 60C29.019 60 28.7791 59.8981 28.6022 59.7166C28.4253 59.5351 28.326 59.2889 28.326 59.0323V9.57004C28.326 9.31338 28.4253 9.06723 28.6022 8.88574C28.7791 8.70425 29.019 8.60229 29.2692 8.60229C29.5194 8.60229 29.7593 8.70425 29.9362 8.88574C30.1131 9.06723 30.2124 9.31338 30.2124 9.57004V59.0323C30.2124 59.2889 30.1131 59.5351 29.9362 59.7166C29.7593 59.8981 29.5194 60 29.2692 60Z" fill="white"/>
<path d="M37.5801 44.9023C36.8401 44.9023 36.3878 44.0284 36.7953 43.3989C37.4641 42.3658 38.1771 40.8344 37.7744 39.4021C37.1702 37.2547 34.1674 36.2889 32.3734 35.7116L31.9508 35.5747C29.729 34.8445 27.844 34.964 26.0202 35.0782C23.7234 35.2229 21.5549 35.3594 19.4072 33.659C18.3805 32.8466 16.652 31.096 16.6053 28.5024C16.5525 25.6036 18.6634 23.6811 19.3114 23.1605C19.5091 23.0102 19.7562 22.9451 19.9999 22.979C20.2437 23.0129 20.465 23.1431 20.6165 23.3419C20.7681 23.5407 20.838 23.7923 20.8114 24.0432C20.7848 24.2942 20.6637 24.5245 20.474 24.6852C20.1363 24.9561 18.454 26.4116 18.4913 28.4666C18.5234 30.2521 19.801 31.5261 20.5598 32.1266C22.1468 33.3832 23.805 33.2782 25.9051 33.1461C27.81 33.0261 29.9681 32.8902 32.5271 33.7311L32.9389 33.8642C35.0946 34.5576 38.7025 35.7184 39.5878 38.8645C40.0655 40.5615 39.6434 42.4998 38.3672 44.4692C38.2812 44.6026 38.1642 44.712 38.0269 44.7875C37.8895 44.8631 37.736 44.9025 37.5801 44.9023ZM34.8154 52.1032C34.075 52.1032 33.6227 51.2294 34.0307 50.5998C34.4702 49.9214 34.9409 48.9227 34.6862 48.0169C34.3014 46.6485 32.2715 45.9958 31.059 45.6058L30.7595 45.509C29.2414 45.0097 27.9369 45.0919 26.6762 45.1718C25.0765 45.2734 23.4221 45.3769 21.8233 44.1116C21.0597 43.5073 19.7732 42.2023 19.7383 40.2527C19.6986 38.0777 21.271 36.6426 21.7535 36.2545C21.851 36.1761 21.9626 36.1182 22.0819 36.0841C22.2013 36.05 22.326 36.0403 22.4489 36.0556C22.5719 36.0709 22.6908 36.111 22.7986 36.1734C22.9065 36.2358 23.0014 36.3195 23.0778 36.4195C23.1542 36.5196 23.2106 36.6341 23.2439 36.7565C23.2772 36.8789 23.2866 37.0069 23.2717 37.133C23.2567 37.2592 23.2177 37.3811 23.1569 37.4918C23.096 37.6025 23.0145 37.6998 22.917 37.7782C22.6967 37.9553 21.6002 38.9042 21.6243 40.2174C21.645 41.3584 22.4798 42.1873 22.9759 42.5797C24.013 43.4008 25.0817 43.3335 26.5607 43.2402C27.9289 43.154 29.4795 43.0568 31.3349 43.666L31.6231 43.7594C33.1978 44.266 35.8327 45.1132 36.4986 47.4808C36.859 48.7611 36.5491 50.2108 35.6021 51.6721C35.5158 51.8049 35.3988 51.9137 35.2615 51.989C35.1243 52.0642 34.971 52.1034 34.8154 52.1032ZM32.5984 58.6935C31.8584 58.6935 31.4061 57.8197 31.8136 57.1902C32.0225 56.8674 32.3522 56.2495 32.2093 55.7405C32.0003 54.9973 30.7515 54.5956 30.0049 54.3556L29.8035 54.2903C28.8504 53.9768 28.0123 54.03 27.2026 54.0808C26.0796 54.1519 24.919 54.2245 23.7616 53.3085C22.8066 52.5513 22.2704 51.5506 22.2515 50.4905C22.2227 48.8937 23.3627 47.851 23.7131 47.5694C23.9099 47.411 24.1601 47.3394 24.4084 47.3702C24.6568 47.4011 24.883 47.5319 25.0374 47.7339C25.1917 47.9359 25.2615 48.1925 25.2315 48.4473C25.2014 48.7021 25.0739 48.9342 24.877 49.0926C24.7511 49.1937 24.1248 49.7347 24.1375 50.4542C24.1488 51.0774 24.6289 51.5497 24.9138 51.7756C25.4835 52.2266 26.0514 52.2145 27.087 52.1482C27.9789 52.0926 29.0881 52.0224 30.3789 52.4463L30.5695 52.5082C31.6047 52.8411 33.5317 53.4614 34.0212 55.2029C34.2872 56.1489 34.0675 57.2061 33.3841 58.2605C33.2984 58.3939 33.1817 58.5033 33.0446 58.5789C32.9074 58.6545 32.7541 58.6939 32.5984 58.6935ZM38.0946 33.5415C37.0679 33.5415 36.808 32.0231 37.7725 31.664C39.2548 31.1119 40.2277 29.8292 40.2518 28.3969C40.2744 27.0377 39.4118 25.7579 38.0545 25.1366C37.8314 25.0285 37.6583 24.8351 37.5726 24.5977C37.4868 24.3603 37.495 24.0978 37.5956 23.8666C37.6961 23.6354 37.8809 23.4538 38.1104 23.3607C38.3399 23.2676 38.5958 23.2704 38.8233 23.3686C40.8724 24.3068 42.1736 26.2931 42.1378 28.4294C42.1001 30.6711 40.6395 32.6545 38.4163 33.4829C38.3132 33.5216 38.2043 33.5414 38.0946 33.5415Z" fill="white"/>
<path d="M26.2004 59.2427C25.6501 59.2425 25.117 59.0453 24.6931 58.6853C24.2036 58.2687 23.9036 57.6672 23.8697 57.0353C23.8046 55.8033 24.7502 54.7016 25.9773 54.5791C26.2248 54.5572 26.4707 54.6364 26.6617 54.7993C26.8526 54.9623 26.9732 55.196 26.9973 55.4497C27.0213 55.7033 26.9468 55.9565 26.79 56.1541C26.6333 56.3518 26.4068 56.478 26.1599 56.5054C25.5835 56.563 25.6977 57.3808 26.2594 57.3029C26.8182 57.225 27.329 57.6895 27.3262 58.2672C27.3233 58.9195 26.7734 59.2427 26.2004 59.2427Z" fill="white"/>
</g>
<path d="M55.2875 39.0771C55.2283 39.1717 55.1219 39.219 54.9682 39.219C54.8145 39.219 54.714 39.1717 54.6667 39.0771C54.5603 38.9116 54.4125 38.6219 54.2233 38.208C54.0341 37.7942 53.8153 37.3035 53.567 36.7359C53.3305 36.1565 53.0763 35.5417 52.8044 34.8913C52.5442 34.241 52.29 33.5966 52.0417 32.9581C51.7934 32.3195 51.5628 31.7224 51.35 31.1667C51.1371 30.5991 50.9657 30.1261 50.8356 29.7478H50.7647C50.6346 31.6278 50.5282 33.1768 50.4454 34.3947C50.3745 35.6008 50.3331 36.5172 50.3213 37.1439C50.3094 37.7587 50.3449 38.1785 50.4277 38.4031C50.5104 38.6278 50.6228 38.7401 50.7647 38.7401H51.5451C51.6278 38.7401 51.687 38.7697 51.7224 38.8288C51.7579 38.8879 51.7756 38.953 51.7756 39.0239C51.7756 39.0949 51.7579 39.1658 51.7224 39.2368C51.687 39.2959 51.6278 39.3254 51.5451 39.3254C51.1076 39.3254 50.7588 39.3254 50.4986 39.3254C50.2503 39.3136 49.9784 39.3077 49.6827 39.3077C49.2216 39.3077 48.7782 39.3136 48.3525 39.3254C47.9387 39.3491 47.6371 39.3609 47.448 39.3609C47.4007 39.3609 47.3593 39.3314 47.3238 39.2722C47.3001 39.2013 47.2883 39.1303 47.2883 39.0594C47.2883 38.9884 47.3001 38.9234 47.3238 38.8643C47.3593 38.7933 47.4007 38.7579 47.448 38.7579H48.0333C48.317 38.7579 48.524 38.7342 48.654 38.6869C48.7959 38.6396 48.8905 38.5037 48.9378 38.279C48.9733 38.0425 49.0206 37.6937 49.0797 37.2325C49.1388 36.7596 49.2039 36.2216 49.2748 35.6185C49.3458 35.0037 49.4167 34.377 49.4876 33.7385C49.5586 33.1 49.6236 32.491 49.6827 31.9116C49.7419 31.3322 49.7892 30.8356 49.8246 30.4217C49.8601 30.0079 49.8778 29.73 49.8778 29.5881C49.8897 28.9614 49.8542 28.5358 49.7714 28.3111C49.7005 28.0746 49.5822 27.9564 49.4167 27.9564H48.5299C48.4826 27.9564 48.4471 27.9327 48.4235 27.8854C48.3998 27.8263 48.388 27.7672 48.388 27.7081C48.388 27.6371 48.3998 27.5662 48.4235 27.4952C48.4471 27.4243 48.4826 27.3888 48.5299 27.3888C48.79 27.3888 49.1093 27.3947 49.4876 27.4066C49.866 27.4066 50.2621 27.4125 50.676 27.4243C51.1017 27.4243 51.5037 27.4243 51.8821 27.4243C51.9412 27.6253 52.0594 27.98 52.2368 28.4885C52.4142 28.9969 52.627 29.6059 52.8753 30.3153C53.1354 31.013 53.4133 31.7638 53.7089 32.5679C54.0045 33.3601 54.2942 34.1464 54.578 34.9268C54.8618 35.7072 55.116 36.4285 55.3407 37.0906H55.4116C55.9082 35.8373 56.4049 34.6075 56.9015 33.4015C57.3981 32.1954 57.8474 31.078 58.2494 30.0493C58.6633 29.0206 58.9766 28.1456 59.1895 27.4243C59.7452 27.4243 60.301 27.4184 60.8567 27.4066C61.4124 27.3829 61.8499 27.3711 62.1692 27.3711C62.2165 27.3711 62.252 27.4125 62.2756 27.4952C62.3111 27.578 62.3288 27.6549 62.3288 27.7258C62.3288 27.8795 62.2756 27.9564 62.1692 27.9564H61.4952C61.2705 27.9564 61.1168 28.0273 61.0341 28.1692C60.9631 28.3111 60.9336 28.5299 60.9454 28.8255C60.9454 28.9201 60.9631 29.2098 60.9986 29.6946C61.0459 30.1675 61.105 30.7528 61.176 31.4505C61.2469 32.1363 61.3178 32.8694 61.3888 33.6498C61.4716 34.4184 61.5484 35.1633 61.6194 35.8846C61.7021 36.594 61.7731 37.203 61.8322 37.7114C61.8559 37.9597 61.8972 38.1962 61.9564 38.4209C62.0273 38.6337 62.1219 38.7401 62.2401 38.7401H63.3575C63.4167 38.7401 63.464 38.7697 63.4994 38.8288C63.5349 38.8879 63.5526 38.953 63.5526 39.0239C63.5526 39.1067 63.5349 39.1776 63.4994 39.2368C63.464 39.2959 63.4167 39.3254 63.3575 39.3254C63.1683 39.3254 62.92 39.3254 62.6126 39.3254C62.3052 39.3136 62.0037 39.3077 61.708 39.3077C61.4124 39.3077 61.1878 39.3077 61.0341 39.3077C60.833 39.3077 60.5729 39.3136 60.2537 39.3254C59.9344 39.3254 59.627 39.3314 59.3314 39.3432C59.0358 39.355 58.8288 39.3609 58.7106 39.3609C58.6633 39.3609 58.6278 39.3254 58.6042 39.2545C58.5805 39.1835 58.5687 39.1126 58.5687 39.0417C58.5687 38.9707 58.5805 38.9057 58.6042 38.8466C58.6278 38.7874 58.6633 38.7579 58.7106 38.7579H59.3846C59.8221 38.7579 60.0231 38.5687 59.9876 38.1903C59.9758 38.0011 59.9521 37.6996 59.9167 37.2857C59.893 36.8719 59.8575 36.393 59.8102 35.8491C59.763 35.2934 59.7157 34.714 59.6684 34.1109C59.6211 33.5079 59.5797 32.9285 59.5442 32.3728C59.5087 31.8052 59.4733 31.3086 59.4378 30.8829C59.4141 30.4454 59.4023 30.1202 59.4023 29.9074H59.3314C59.154 30.2858 58.9234 30.8001 58.6396 31.4505C58.3677 32.089 58.0662 32.7866 57.7351 33.5434C57.4158 34.2883 57.0966 35.0273 56.7773 35.7604C56.4581 36.4935 56.1625 37.1557 55.8905 37.7469C55.6304 38.3381 55.4293 38.7815 55.2875 39.0771ZM67.8784 34.8204C68.2568 34.8086 68.6174 34.7908 68.9603 34.7672C69.315 34.7435 69.6106 34.7199 69.8471 34.6962C70.0836 34.6608 70.2137 34.6371 70.2373 34.6253L70.3615 33.8804C70.3851 33.8212 70.4679 33.7917 70.6098 33.7917C70.6453 33.7917 70.6926 33.8035 70.7517 33.8271C70.8108 33.839 70.8404 33.8685 70.8404 33.9158C70.8167 34.105 70.799 34.2883 70.7872 34.4657C70.7753 34.6312 70.7694 34.8145 70.7694 35.0155C70.7694 35.1928 70.7753 35.388 70.7872 35.6008C70.799 35.8018 70.8167 36.0028 70.8404 36.2038C70.8404 36.2393 70.8049 36.2689 70.734 36.2925C70.6748 36.3043 70.6157 36.3102 70.5566 36.3102C70.5093 36.3102 70.462 36.3043 70.4147 36.2925C70.3792 36.2807 70.3615 36.2629 70.3615 36.2393L70.2196 35.4766C70.1959 35.453 70.0659 35.4293 69.8294 35.4057C69.6047 35.382 69.3209 35.3584 68.978 35.3347C68.6351 35.3111 68.2686 35.2934 67.8784 35.2815V37.4276C67.8784 37.9243 67.9139 38.2731 67.9848 38.4741C68.0558 38.6633 68.1385 38.7579 68.2331 38.7579H68.8007C69.3564 38.746 69.8826 38.6928 70.3792 38.5982C70.8877 38.5037 71.2601 38.3736 71.4966 38.208L71.5853 37.5163C71.5971 37.4809 71.6326 37.4572 71.6917 37.4454C71.7627 37.4217 71.8218 37.4099 71.8691 37.4099C71.9282 37.4099 71.9814 37.4158 72.0287 37.4276C72.076 37.4395 72.0937 37.469 72.0819 37.5163C72.0346 37.8238 72.0051 38.1726 71.9932 38.5628C71.9814 38.9412 71.9755 39.29 71.9755 39.6092C71.9755 39.6447 71.9459 39.6683 71.8868 39.6802C71.8395 39.692 71.7981 39.6979 71.7627 39.6979C71.7154 39.6979 71.6562 39.692 71.5853 39.6802C71.5262 39.6683 71.4966 39.6447 71.4966 39.6092V39.3254H68.3395C67.6183 39.3254 67.0625 39.3254 66.6723 39.3254C66.2821 39.3373 65.9924 39.3432 65.8032 39.3432C65.614 39.355 65.4544 39.3609 65.3243 39.3609C65.277 39.3609 65.2416 39.3254 65.2179 39.2545C65.2061 39.1835 65.2002 39.1244 65.2002 39.0771C65.2002 39.018 65.2061 38.9648 65.2179 38.9175C65.2416 38.8584 65.2711 38.8288 65.3066 38.8288H66.1047C66.2348 38.8288 66.3117 38.7993 66.3353 38.7401C66.359 38.681 66.3708 38.5391 66.3708 38.3145V32.7275C66.3708 32.2309 66.3353 31.8702 66.2644 31.6456C66.2052 31.4209 66.1225 31.3086 66.0161 31.3086H65.3775C65.2357 31.3086 65.1647 31.2199 65.1647 31.0425C65.1647 30.8533 65.2297 30.7587 65.3598 30.7587C65.5845 30.7587 65.8564 30.7647 66.1757 30.7765C66.5068 30.7883 66.8378 30.7942 67.1689 30.7942H70.8404V30.5104C70.8404 30.475 70.864 30.4513 70.9113 30.4395C70.9586 30.4158 71.0059 30.404 71.0532 30.404C71.1005 30.404 71.1537 30.4158 71.2128 30.4395C71.2838 30.4513 71.3193 30.475 71.3193 30.5104C71.3193 30.8297 71.3252 31.1785 71.337 31.5569C71.3606 31.9353 71.3961 32.2545 71.4434 32.5146C71.4552 32.5501 71.4375 32.5797 71.3902 32.6033C71.3429 32.6152 71.2956 32.6211 71.2483 32.6211C71.201 32.6211 71.136 32.6152 71.0532 32.6033C70.9823 32.5797 70.9468 32.5501 70.9468 32.5146C70.8995 32.3491 70.8404 32.1717 70.7694 31.9826C70.7103 31.7934 70.6098 31.6633 70.4679 31.5924C70.2432 31.5096 69.9654 31.4445 69.6343 31.3973C69.3032 31.35 68.8598 31.3263 68.3041 31.3263C68.1385 31.3381 68.0262 31.3913 67.9671 31.4859C67.9079 31.5687 67.8784 31.7106 67.8784 31.9116V34.8204ZM77.7185 30.7942C78.7827 30.7942 79.6991 30.9952 80.4677 31.3973C81.2362 31.7875 81.8274 32.3077 82.2413 32.9581C82.667 33.6084 82.8798 34.3179 82.8798 35.0864C82.8798 35.9614 82.6611 36.7182 82.2236 37.3567C81.7979 37.9952 81.2126 38.4859 80.4677 38.8288C79.7227 39.1599 78.8891 39.3254 77.9668 39.3254H76.0335C75.7025 39.3254 75.4364 39.3254 75.2354 39.3254C75.0462 39.3373 74.8689 39.3432 74.7033 39.3432C74.5496 39.355 74.3604 39.3609 74.1357 39.3609C74.1003 39.3609 74.0707 39.3314 74.0471 39.2722C74.0234 39.2013 74.0116 39.1422 74.0116 39.0949C74.0116 39.0357 74.0175 38.9766 74.0293 38.9175C74.053 38.8584 74.0766 38.8288 74.1003 38.8288H74.9694C75.1112 38.8288 75.1822 38.7283 75.1822 38.5273V32.7097C75.1822 31.7756 75.0521 31.3086 74.792 31.3086H74.1712C74.0411 31.3086 73.9761 31.2199 73.9761 31.0425C73.9761 30.9716 73.9879 30.9065 74.0116 30.8474C74.0471 30.7883 74.0884 30.7587 74.1357 30.7587C74.1357 30.7587 74.3249 30.7647 74.7033 30.7765C75.0935 30.7883 75.5251 30.7942 75.9981 30.7942H77.7185ZM77.7008 38.7579C78.8241 38.7579 79.6695 38.4445 80.2371 37.8178C80.8046 37.1793 81.0884 36.3753 81.0884 35.4057C81.0884 34.6489 80.9524 33.969 80.6805 33.366C80.4204 32.763 80.0006 32.2841 79.4212 31.9293C78.8536 31.5628 78.1028 31.3618 77.1687 31.3263C76.8494 31.3027 76.6898 31.4741 76.6898 31.8407V37.3744C76.6898 37.8592 76.7194 38.214 76.7785 38.4386C76.8494 38.6515 76.944 38.7579 77.0623 38.7579H77.7008ZM89.5501 30.5636C90.1768 30.5636 90.7739 30.6819 91.3415 30.9184C91.9209 31.1549 92.4293 31.48 92.8668 31.8939C93.3161 32.3077 93.6649 32.7866 93.9133 33.3305C94.1734 33.8626 94.3035 34.4302 94.3035 35.0332C94.3035 35.6481 94.1734 36.2275 93.9133 36.7714C93.6649 37.3153 93.3161 37.8001 92.8668 38.2258C92.4293 38.6396 91.9209 38.9648 91.3415 39.2013C90.7739 39.4378 90.1768 39.556 89.5501 39.556C88.9234 39.556 88.3204 39.4378 87.741 39.2013C87.1734 38.9648 86.665 38.6396 86.2156 38.2258C85.7781 37.8001 85.4293 37.3153 85.1692 36.7714C84.9209 36.2275 84.7967 35.6481 84.7967 35.0332C84.7967 34.4302 84.9209 33.8626 85.1692 33.3305C85.4293 32.7866 85.7781 32.3077 86.2156 31.8939C86.665 31.48 87.1734 31.1549 87.741 30.9184C88.3204 30.6819 88.9234 30.5636 89.5501 30.5636ZM89.5501 31.2022C88.9471 31.2022 88.4209 31.3795 87.9715 31.7342C87.534 32.0771 87.1911 32.5383 86.9428 33.1177C86.6945 33.6971 86.5704 34.3356 86.5704 35.0332C86.5704 35.7309 86.6945 36.3753 86.9428 36.9665C87.1911 37.5577 87.534 38.0307 87.9715 38.3854C88.4209 38.7401 88.9471 38.9175 89.5501 38.9175C90.1531 38.9175 90.6734 38.7401 91.1109 38.3854C91.5602 38.0307 91.909 37.5577 92.1573 36.9665C92.4057 36.3753 92.5298 35.7309 92.5298 35.0332C92.5298 34.3356 92.4057 33.6971 92.1573 33.1177C91.909 32.5383 91.5602 32.0771 91.1109 31.7342C90.6734 31.3795 90.1531 31.2022 89.5501 31.2022ZM96.2244 35.3525C96.2244 34.6194 96.3604 33.9631 96.6323 33.3837C96.9161 32.7925 97.3004 32.29 97.7852 31.8761C98.27 31.4505 98.8198 31.1253 99.4347 30.9006C100.061 30.676 100.712 30.5636 101.386 30.5636C101.788 30.5636 102.154 30.6168 102.485 30.7233C102.828 30.8179 103.136 30.9361 103.408 31.078V30.7765C103.408 30.6937 103.479 30.6523 103.62 30.6523C103.668 30.6523 103.715 30.6641 103.762 30.6878C103.822 30.6996 103.851 30.7292 103.851 30.7765C103.851 31.0957 103.869 31.4859 103.904 31.9471C103.94 32.4082 103.981 32.7925 104.028 33.1C104.04 33.1472 104.017 33.1827 103.957 33.2064C103.91 33.23 103.857 33.2418 103.798 33.2418C103.751 33.2418 103.697 33.23 103.638 33.2064C103.579 33.1827 103.544 33.1472 103.532 33.1L103.39 32.1599C103.035 31.817 102.675 31.5746 102.308 31.4327C101.941 31.2908 101.539 31.2199 101.102 31.2199C100.546 31.2199 100.032 31.3854 99.5588 31.7165C99.0859 32.0476 98.7075 32.5028 98.4237 33.0822C98.1399 33.6498 97.998 34.306 97.998 35.051C97.998 35.7959 98.1458 36.458 98.4415 37.0374C98.7489 37.6168 99.1509 38.0721 99.6475 38.4031C100.144 38.7342 100.694 38.8998 101.297 38.8998C101.735 38.8998 102.137 38.8406 102.503 38.7224C102.881 38.5923 103.266 38.3972 103.656 38.1371L103.745 37.1261C103.745 37.0315 103.822 36.9842 103.975 36.9842C104.023 36.9842 104.082 36.9961 104.153 37.0197C104.224 37.0315 104.253 37.067 104.241 37.1261C104.206 37.3035 104.182 37.5281 104.17 37.8001C104.158 38.0721 104.147 38.3499 104.135 38.6337C104.135 38.9057 104.135 39.1481 104.135 39.3609C104.135 39.3964 104.099 39.42 104.028 39.4319C103.969 39.4555 103.916 39.4673 103.869 39.4673C103.727 39.4673 103.656 39.4319 103.656 39.3609V39.0594C102.84 39.3905 102.03 39.556 101.226 39.556C100.28 39.556 99.4288 39.3846 98.672 39.0417C97.9153 38.6988 97.3181 38.214 96.8806 37.5873C96.4431 36.9606 96.2244 36.2157 96.2244 35.3525ZM114.868 37.1793C114.868 37.6287 114.886 37.9656 114.921 38.1903C114.969 38.415 115.022 38.5628 115.081 38.6337C115.14 38.7047 115.193 38.7401 115.241 38.7401H116.269C116.328 38.7401 116.37 38.7756 116.393 38.8466C116.429 38.9175 116.447 38.9944 116.447 39.0771C116.447 39.2427 116.388 39.3254 116.269 39.3254H115.507C115.388 39.3254 115.264 39.3254 115.134 39.3254C115.004 39.3136 114.874 39.3077 114.744 39.3077H114.035C113.538 39.3077 113.142 39.3136 112.846 39.3254C112.551 39.3254 112.308 39.3314 112.119 39.3432C111.93 39.355 111.741 39.3609 111.551 39.3609C111.504 39.3609 111.469 39.3314 111.445 39.2722C111.421 39.2131 111.41 39.1481 111.41 39.0771C111.41 38.9944 111.421 38.9234 111.445 38.8643C111.469 38.7933 111.504 38.7579 111.551 38.7579H112.314C112.622 38.7579 112.817 38.6988 112.899 38.5805C112.994 38.4623 113.041 38.2494 113.041 37.942V29.5349C113.041 29.0738 113.018 28.7368 112.97 28.524C112.935 28.2993 112.888 28.1515 112.828 28.0805C112.781 28.0096 112.728 27.9741 112.669 27.9741H111.64C111.546 27.9741 111.498 27.8618 111.498 27.6371C111.498 27.578 111.504 27.5248 111.516 27.4775C111.54 27.4184 111.581 27.3888 111.64 27.3888C112.125 27.3888 112.551 27.3947 112.917 27.4066C113.296 27.4184 113.615 27.4243 113.875 27.4243H115.915C117.026 27.4243 117.925 27.5721 118.611 27.8677C119.296 28.1633 119.799 28.5535 120.118 29.0383C120.449 29.5113 120.615 30.0138 120.615 30.5459C120.615 31.0898 120.455 31.616 120.136 32.1244C119.828 32.6329 119.385 33.0527 118.806 33.3837C118.238 33.7148 117.558 33.8804 116.766 33.8804C116.482 33.8804 116.181 33.8508 115.861 33.7917C115.542 33.7207 115.211 33.6084 114.868 33.4547V37.1793ZM118.699 30.6878C118.699 30.2621 118.587 29.8542 118.362 29.464C118.138 29.0738 117.789 28.7545 117.316 28.5062C116.843 28.2579 116.24 28.1337 115.507 28.1337C115.282 28.1337 115.116 28.1929 115.01 28.3111C114.915 28.4175 114.868 28.6304 114.868 28.9496V32.8871C115.187 32.9581 115.501 32.9935 115.808 32.9935C116.447 32.9935 116.979 32.8871 117.404 32.6743C117.83 32.4496 118.149 32.1658 118.362 31.8229C118.587 31.4682 118.699 31.0898 118.699 30.6878ZM130.808 37.4276C130.808 37.9243 130.843 38.2731 130.914 38.4741C130.985 38.6751 131.068 38.7756 131.162 38.7756H132.049C132.085 38.7756 132.114 38.8052 132.138 38.8643C132.173 38.9234 132.191 38.9944 132.191 39.0771C132.191 39.1363 132.179 39.1954 132.156 39.2545C132.144 39.3018 132.12 39.3254 132.085 39.3254C131.872 39.3254 131.594 39.3254 131.251 39.3254C130.908 39.3136 130.5 39.3077 130.027 39.3077C129.46 39.3077 129.058 39.3136 128.821 39.3254C128.585 39.3491 128.395 39.3609 128.253 39.3609C128.206 39.3609 128.171 39.3254 128.147 39.2545C128.135 39.1835 128.129 39.1244 128.129 39.0771C128.129 39.018 128.135 38.9648 128.147 38.9175C128.171 38.8584 128.2 38.8288 128.236 38.8288H129.034C129.164 38.8288 129.241 38.7993 129.264 38.7401C129.288 38.681 129.3 38.5391 129.3 38.3145V35.4234H125.008V37.4276C125.008 37.9243 125.043 38.2731 125.114 38.4741C125.185 38.6751 125.268 38.7756 125.362 38.7756H126.249C126.285 38.7756 126.314 38.8052 126.338 38.8643C126.373 38.9234 126.391 38.9944 126.391 39.0771C126.391 39.1363 126.379 39.1954 126.356 39.2545C126.344 39.3018 126.32 39.3254 126.285 39.3254C126.072 39.3254 125.794 39.3254 125.451 39.3254C125.108 39.3136 124.7 39.3077 124.227 39.3077C123.66 39.3077 123.258 39.3136 123.021 39.3254C122.785 39.3491 122.596 39.3609 122.454 39.3609C122.406 39.3609 122.371 39.3254 122.347 39.2545C122.335 39.1835 122.33 39.1244 122.33 39.0771C122.33 39.018 122.335 38.9648 122.347 38.9175C122.371 38.8584 122.4 38.8288 122.436 38.8288H123.234C123.364 38.8288 123.441 38.7993 123.465 38.7401C123.488 38.681 123.5 38.5391 123.5 38.3145V32.7275C123.5 32.2309 123.465 31.8702 123.394 31.6456C123.335 31.4209 123.252 31.3086 123.145 31.3086H122.507C122.365 31.3086 122.294 31.2199 122.294 31.0425C122.294 30.8533 122.359 30.7587 122.489 30.7587C122.714 30.7587 122.98 30.7706 123.287 30.7942C123.595 30.806 123.908 30.806 124.227 30.7942C124.44 30.7942 124.688 30.7942 124.972 30.7942C125.268 30.7824 125.522 30.7765 125.735 30.7765C125.96 30.7647 126.072 30.7587 126.072 30.7587C126.107 30.7587 126.137 30.7883 126.161 30.8474C126.184 30.9065 126.196 30.9657 126.196 31.0248C126.196 31.1903 126.149 31.2731 126.054 31.2731H125.238C125.156 31.2731 125.096 31.2908 125.061 31.3263C125.025 31.3618 125.008 31.4386 125.008 31.5569V34.7494H129.3V32.7275C129.3 32.2309 129.264 31.8702 129.194 31.6456C129.134 31.4209 129.052 31.3086 128.945 31.3086H128.307C128.165 31.3086 128.094 31.2199 128.094 31.0425C128.094 30.8533 128.159 30.7587 128.289 30.7587C128.514 30.7587 128.78 30.7706 129.087 30.7942C129.395 30.806 129.708 30.806 130.027 30.7942C130.24 30.7942 130.488 30.7942 130.772 30.7942C131.068 30.7824 131.322 30.7765 131.535 30.7765C131.759 30.7647 131.872 30.7587 131.872 30.7587C131.907 30.7587 131.937 30.7883 131.96 30.8474C131.984 30.9065 131.996 30.9657 131.996 31.0248C131.996 31.1903 131.949 31.2731 131.854 31.2731H131.038C130.955 31.2731 130.896 31.2908 130.861 31.3263C130.825 31.3618 130.808 31.4386 130.808 31.5569V37.4276ZM137.934 30.7233C137.981 30.6168 138.099 30.5636 138.289 30.5636C138.466 30.5636 138.578 30.6228 138.626 30.741C138.685 31.0011 138.797 31.3618 138.963 31.8229C139.14 32.2841 139.347 32.8043 139.583 33.3837C139.82 33.9513 140.062 34.5366 140.311 35.1396C140.571 35.7309 140.819 36.2984 141.055 36.8423C141.304 37.3744 141.517 37.8297 141.694 38.208C141.836 38.5037 141.966 38.6928 142.084 38.7756C142.202 38.8466 142.386 38.882 142.634 38.882C142.705 38.882 142.74 38.953 142.74 39.0949C142.74 39.154 142.734 39.2131 142.723 39.2722C142.711 39.3314 142.687 39.3609 142.652 39.3609C142.285 39.3609 141.978 39.355 141.729 39.3432C141.481 39.3314 141.221 39.3254 140.949 39.3254C140.724 39.3254 140.452 39.3314 140.133 39.3432C139.814 39.355 139.447 39.3609 139.033 39.3609C138.986 39.3609 138.957 39.3373 138.945 39.29C138.933 39.2308 138.927 39.1776 138.927 39.1303C138.927 38.9766 138.963 38.8998 139.033 38.8998H139.885C140.015 38.8998 140.08 38.8466 140.08 38.7401C140.08 38.7047 140.033 38.5569 139.938 38.2967C139.843 38.0366 139.719 37.7055 139.566 37.3035C139.424 36.9015 139.264 36.4699 139.087 36.0087H136.621C136.373 36.6236 136.166 37.1557 136.001 37.605C135.835 38.0543 135.752 38.3618 135.752 38.5273C135.752 38.6692 135.776 38.7638 135.823 38.8111C135.87 38.8584 135.918 38.882 135.965 38.882H136.692C136.787 38.882 136.834 38.953 136.834 39.0949C136.834 39.154 136.822 39.2131 136.799 39.2722C136.787 39.3314 136.763 39.3609 136.728 39.3609C136.432 39.3609 136.196 39.355 136.018 39.3432C135.853 39.3432 135.699 39.3373 135.557 39.3254C135.427 39.3254 135.273 39.3254 135.096 39.3254C134.883 39.3254 134.67 39.3314 134.457 39.3432C134.256 39.355 134.002 39.3609 133.695 39.3609C133.648 39.3609 133.612 39.3373 133.588 39.29C133.577 39.2308 133.571 39.1776 133.571 39.1303C133.571 38.9766 133.612 38.8998 133.695 38.8998H134.262C134.392 38.8998 134.487 38.8466 134.546 38.7401C134.664 38.5509 134.83 38.2199 135.043 37.7469C135.267 37.2621 135.516 36.7004 135.788 36.0619C136.06 35.4234 136.332 34.7672 136.604 34.0932C136.887 33.4192 137.148 32.7866 137.384 32.1954C137.62 31.5924 137.804 31.1016 137.934 30.7233ZM138.856 35.4057C138.691 34.9209 138.525 34.442 138.36 33.969C138.206 33.4961 138.064 33.0763 137.934 32.7097H137.881C137.727 33.1472 137.561 33.6025 137.384 34.0755C137.207 34.5484 137.035 34.9918 136.87 35.4057H138.856ZM146.839 37.605C146.839 37.9952 146.875 38.2908 146.946 38.4918C147.017 38.681 147.1 38.7756 147.194 38.7756H147.939C147.986 38.7756 148.022 38.8111 148.046 38.882C148.069 38.953 148.081 39.018 148.081 39.0771C148.081 39.1363 148.069 39.1954 148.046 39.2545C148.034 39.3018 148.016 39.3254 147.992 39.3254H146.183C145.852 39.3254 145.586 39.3254 145.385 39.3254C145.196 39.3373 145.019 39.3432 144.853 39.3432C144.699 39.355 144.51 39.3609 144.285 39.3609C144.25 39.3609 144.22 39.3314 144.197 39.2722C144.173 39.2013 144.161 39.1422 144.161 39.0949C144.161 39.0357 144.167 38.9766 144.179 38.9175C144.203 38.8584 144.226 38.8288 144.25 38.8288H145.119C145.261 38.8288 145.332 38.7283 145.332 38.5273V32.7097C145.332 31.7756 145.202 31.3086 144.942 31.3086H144.321C144.191 31.3086 144.126 31.2199 144.126 31.0425C144.126 30.9716 144.138 30.9065 144.161 30.8474C144.197 30.7883 144.238 30.7587 144.285 30.7587C144.285 30.7587 144.439 30.7647 144.747 30.7765C145.054 30.7765 145.45 30.7824 145.935 30.7942C146.432 30.7942 146.952 30.7942 147.496 30.7942C148.655 30.7942 149.524 31.0366 150.103 31.5214C150.694 32.0062 150.99 32.5915 150.99 33.2773C150.99 33.7148 150.872 34.0991 150.635 34.4302C150.41 34.7613 150.109 35.0273 149.731 35.2283C149.352 35.4175 148.944 35.5298 148.507 35.5653C148.743 35.719 148.956 35.92 149.145 36.1684C149.346 36.4048 149.571 36.6768 149.819 36.9842C150.079 37.2798 150.393 37.5873 150.759 37.9065C151.138 38.2258 151.622 38.5391 152.214 38.8466C152.119 39.0357 151.977 39.2013 151.788 39.3432C151.599 39.4851 151.368 39.556 151.096 39.556C150.694 39.556 150.345 39.4437 150.05 39.219C149.766 38.9944 149.518 38.7106 149.305 38.3677C149.092 38.0248 148.897 37.67 148.72 37.3035C148.554 36.9251 148.383 36.5822 148.205 36.2748C148.04 35.9673 147.856 35.7427 147.655 35.6008L146.839 35.5476V37.605ZM147.194 31.3263C146.958 31.3263 146.839 31.5214 146.839 31.9116V34.8559C147.005 34.8913 147.171 34.9091 147.336 34.9091C147.667 34.9091 147.981 34.8499 148.276 34.7317C148.584 34.6016 148.832 34.4124 149.021 34.1641C149.21 33.904 149.305 33.5907 149.305 33.2241C149.305 32.9521 149.234 32.6684 149.092 32.3728C148.962 32.0771 148.743 31.8288 148.436 31.6278C148.128 31.4268 147.714 31.3263 147.194 31.3263ZM163.849 31.2731C163.624 31.2731 163.5 31.3854 163.476 31.6101C163.453 31.8229 163.464 32.1599 163.512 32.6211C163.571 33.2241 163.63 33.8744 163.689 34.5721C163.76 35.2579 163.825 35.9082 163.884 36.5231C163.955 37.1379 164.014 37.6405 164.062 38.0307C164.085 38.208 164.121 38.3795 164.168 38.545C164.215 38.6988 164.28 38.7756 164.363 38.7756H165.143C165.191 38.7756 165.226 38.8111 165.25 38.882C165.285 38.9412 165.303 39.0062 165.303 39.0771C165.303 39.2427 165.256 39.3254 165.161 39.3254C165.031 39.3254 164.848 39.3254 164.611 39.3254C164.375 39.3136 164.144 39.3077 163.92 39.3077C163.707 39.3077 163.541 39.3077 163.423 39.3077C163.281 39.3077 163.08 39.3136 162.82 39.3254C162.572 39.3254 162.329 39.3314 162.093 39.3432C161.868 39.355 161.714 39.3609 161.632 39.3609C161.584 39.3609 161.549 39.3314 161.525 39.2722C161.513 39.2013 161.508 39.1422 161.508 39.0949C161.508 38.9175 161.543 38.8288 161.614 38.8288H162.164C162.483 38.8288 162.631 38.6928 162.607 38.4209C162.595 38.279 162.578 38.0366 162.554 37.6937C162.53 37.3508 162.501 36.9547 162.465 36.5053C162.43 36.056 162.394 35.5949 162.359 35.1219C162.323 34.6489 162.294 34.2114 162.27 33.8094C162.247 33.3956 162.229 33.0586 162.217 32.7984H162.146C161.898 33.3305 161.632 33.9158 161.348 34.5543C161.064 35.1928 160.786 35.8195 160.514 36.4344C160.254 37.0493 160.024 37.5932 159.823 38.0662C159.633 38.5391 159.497 38.882 159.415 39.0949C159.367 39.2013 159.249 39.2545 159.06 39.2545C158.883 39.2545 158.77 39.1954 158.723 39.0771C158.605 38.7697 158.439 38.3677 158.226 37.8711C158.025 37.3626 157.801 36.8069 157.552 36.2038C157.316 35.6008 157.073 34.9918 156.825 34.377C156.577 33.7621 156.346 33.1886 156.133 32.6565H156.08C155.903 35.1042 155.814 36.7596 155.814 37.6227C155.802 38.0721 155.826 38.3795 155.885 38.545C155.944 38.6988 156.027 38.7756 156.133 38.7756H156.683C156.742 38.7756 156.784 38.8111 156.807 38.882C156.843 38.9412 156.861 39.0003 156.861 39.0594C156.861 39.2368 156.801 39.3254 156.683 39.3254C156.376 39.3254 156.116 39.3254 155.903 39.3254C155.69 39.3136 155.477 39.3077 155.264 39.3077C154.933 39.3077 154.602 39.3136 154.271 39.3254C153.94 39.3491 153.703 39.3609 153.562 39.3609C153.526 39.3609 153.497 39.3314 153.473 39.2722C153.461 39.2013 153.455 39.1422 153.455 39.0949C153.455 39.0357 153.461 38.9766 153.473 38.9175C153.497 38.8584 153.532 38.8288 153.579 38.8288H154.005C154.206 38.8288 154.354 38.8111 154.448 38.7756C154.555 38.7401 154.626 38.6396 154.661 38.4741C154.697 38.2731 154.738 37.9597 154.785 37.5341C154.845 37.1084 154.904 36.6295 154.963 36.0974C155.022 35.5653 155.075 35.045 155.122 34.5366C155.182 34.0163 155.229 33.567 155.264 33.1886C155.3 32.7984 155.317 32.5442 155.317 32.426C155.317 31.9766 155.288 31.681 155.229 31.5391C155.182 31.3854 155.087 31.3086 154.945 31.3086H154.448C154.377 31.3086 154.342 31.214 154.342 31.0248C154.342 30.8474 154.377 30.7587 154.448 30.7587C154.779 30.7587 155.063 30.7706 155.3 30.7942C155.548 30.806 155.832 30.812 156.151 30.812H156.985C157.15 31.2731 157.334 31.7934 157.535 32.3728C157.747 32.9403 157.96 33.5197 158.173 34.1109C158.386 34.6903 158.593 35.252 158.794 35.7959C158.995 36.3398 159.172 36.8187 159.326 37.2325H159.397C159.645 36.6886 159.899 36.1033 160.16 35.4766C160.431 34.8381 160.686 34.2114 160.922 33.5966C161.159 32.9817 161.366 32.4319 161.543 31.9471C161.732 31.4505 161.874 31.0721 161.969 30.812C162.111 30.812 162.323 30.806 162.607 30.7942C162.903 30.7824 163.204 30.7765 163.512 30.7765C163.831 30.7647 164.091 30.7587 164.292 30.7587C164.339 30.7587 164.375 30.7883 164.399 30.8474C164.422 30.8947 164.434 30.9479 164.434 31.0071C164.434 31.0662 164.422 31.1253 164.399 31.1844C164.375 31.2435 164.339 31.2731 164.292 31.2731H163.849ZM170.933 30.7233C170.98 30.6168 171.098 30.5636 171.287 30.5636C171.465 30.5636 171.577 30.6228 171.624 30.741C171.683 31.0011 171.796 31.3618 171.961 31.8229C172.139 32.2841 172.346 32.8043 172.582 33.3837C172.819 33.9513 173.061 34.5366 173.309 35.1396C173.569 35.7309 173.818 36.2984 174.054 36.8423C174.303 37.3744 174.515 37.8297 174.693 38.208C174.835 38.5037 174.965 38.6928 175.083 38.7756C175.201 38.8466 175.384 38.882 175.633 38.882C175.704 38.882 175.739 38.953 175.739 39.0949C175.739 39.154 175.733 39.2131 175.721 39.2722C175.71 39.3314 175.686 39.3609 175.651 39.3609C175.284 39.3609 174.977 39.355 174.728 39.3432C174.48 39.3314 174.22 39.3254 173.948 39.3254C173.723 39.3254 173.451 39.3314 173.132 39.3432C172.813 39.355 172.446 39.3609 172.032 39.3609C171.985 39.3609 171.955 39.3373 171.944 39.29C171.932 39.2308 171.926 39.1776 171.926 39.1303C171.926 38.9766 171.961 38.8998 172.032 38.8998H172.884C173.014 38.8998 173.079 38.8466 173.079 38.7401C173.079 38.7047 173.031 38.5569 172.937 38.2967C172.842 38.0366 172.718 37.7055 172.564 37.3035C172.422 36.9015 172.263 36.4699 172.085 36.0087H169.62C169.372 36.6236 169.165 37.1557 168.999 37.605C168.834 38.0543 168.751 38.3618 168.751 38.5273C168.751 38.6692 168.775 38.7638 168.822 38.8111C168.869 38.8584 168.917 38.882 168.964 38.882H169.691C169.786 38.882 169.833 38.953 169.833 39.0949C169.833 39.154 169.821 39.2131 169.797 39.2722C169.786 39.3314 169.762 39.3609 169.727 39.3609C169.431 39.3609 169.194 39.355 169.017 39.3432C168.852 39.3432 168.698 39.3373 168.556 39.3254C168.426 39.3254 168.272 39.3254 168.095 39.3254C167.882 39.3254 167.669 39.3314 167.456 39.3432C167.255 39.355 167.001 39.3609 166.694 39.3609C166.646 39.3609 166.611 39.3373 166.587 39.29C166.575 39.2308 166.569 39.1776 166.569 39.1303C166.569 38.9766 166.611 38.8998 166.694 38.8998H167.261C167.391 38.8998 167.486 38.8466 167.545 38.7401C167.663 38.5509 167.829 38.2199 168.042 37.7469C168.266 37.2621 168.515 36.7004 168.787 36.0619C169.058 35.4234 169.33 34.7672 169.602 34.0932C169.886 33.4192 170.146 32.7866 170.383 32.1954C170.619 31.5924 170.803 31.1016 170.933 30.7233ZM171.855 35.4057C171.689 34.9209 171.524 34.442 171.358 33.969C171.205 33.4961 171.063 33.0763 170.933 32.7097H170.879C170.726 33.1472 170.56 33.6025 170.383 34.0755C170.205 34.5484 170.034 34.9918 169.868 35.4057H171.855Z" fill="white"/>
<defs>
<clipPath id="clip0_2709_2552">
<rect width="58.4807" height="60" fill="white"/>
</clipPath>
</defs>
</svg>
