<svg width="16" height="16" viewBox="0 0 16 16" fill="none" xmlns="http://www.w3.org/2000/svg">
<mask id="mask0_2723_3494" style="mask-type:alpha" maskUnits="userSpaceOnUse" x="0" y="0" width="16" height="16">
<rect width="16" height="16" fill="#D9D9D9"/>
</mask>
<g mask="url(#mask0_2723_3494)">
<path d="M10.5153 8.64867L9.76664 7.9C9.86664 7.34789 9.70914 6.8515 9.29414 6.41084C8.87925 5.97028 8.37008 5.8 7.76664 5.9L7.01797 5.15134C7.16841 5.08378 7.32269 5.03311 7.4808 4.99934C7.63891 4.96556 7.81197 4.94867 7.99997 4.94867C8.75641 4.94867 9.39853 5.21256 9.9263 5.74034C10.4541 6.26811 10.718 6.91022 10.718 7.66667C10.718 7.85467 10.7011 8.02989 10.6673 8.19234C10.6335 8.35467 10.5829 8.50678 10.5153 8.64867ZM12.6358 10.723L11.9 10.0333C12.3222 9.71111 12.6972 9.35834 13.025 8.975C13.3527 8.59167 13.6333 8.15556 13.8666 7.66667C13.3111 6.54445 12.5139 5.65278 11.475 4.99167C10.4361 4.33056 9.27775 4 7.99997 4C7.67775 4 7.36108 4.02222 7.04997 4.06667C6.73886 4.11111 6.4333 4.17778 6.1333 4.26667L5.35647 3.48984C5.7778 3.32228 6.20814 3.19878 6.64747 3.11933C7.0868 3.03978 7.53764 3 7.99997 3C9.5623 3 10.9712 3.43078 12.2268 4.29234C13.4824 5.15389 14.3982 6.27867 14.9743 7.66667C14.7273 8.26234 14.4083 8.81834 14.0173 9.33467C13.6262 9.85089 13.1657 10.3137 12.6358 10.723ZM13.1743 14.5795L10.477 11.9025C10.1351 12.0291 9.75619 12.1325 9.3403 12.2128C8.92452 12.2932 8.47775 12.3333 7.99997 12.3333C6.4333 12.3333 5.02436 11.9026 3.77314 11.041C2.5218 10.1794 1.60597 9.05467 1.02563 7.66667C1.27175 7.07778 1.58969 6.52845 1.97947 6.01867C2.36925 5.50878 2.7983 5.06667 3.26663 4.69234L1.42047 2.82567L2.12313 2.12317L13.8768 13.8768L13.1743 14.5795ZM3.9693 5.39484C3.61708 5.67517 3.27452 6.01217 2.94164 6.40584C2.60875 6.79939 2.3393 7.21967 2.1333 7.66667C2.68886 8.78889 3.48608 9.68056 4.52497 10.3417C5.56386 11.0028 6.72219 11.3333 7.99997 11.3333C8.30341 11.3333 8.60558 11.3077 8.90647 11.2563C9.20725 11.2051 9.46236 11.1522 9.6718 11.0975L8.82814 10.2333C8.71447 10.2794 8.58286 10.3162 8.4333 10.3435C8.28375 10.3709 8.1393 10.3847 7.99997 10.3847C7.24352 10.3847 6.60141 10.1208 6.07364 9.593C5.54586 9.06522 5.28197 8.42311 5.28197 7.66667C5.28197 7.53167 5.29569 7.39045 5.32314 7.243C5.35047 7.09556 5.38719 6.96072 5.4333 6.8385L3.9693 5.39484Z" fill="#1C1B1F"/>
</g>
</svg>
