<svg width="17" height="16" viewBox="0 0 17 16" fill="none" xmlns="http://www.w3.org/2000/svg">
<mask id="mask0_2723_3504" style="mask-type:alpha" maskUnits="userSpaceOnUse" x="0" y="0" width="17" height="16">
<rect x="0.341431" width="16" height="16" fill="#D9D9D9"/>
</mask>
<g mask="url(#mask0_2723_3504)">
<path d="M8.3429 10.3847C9.09834 10.3847 9.73996 10.1203 10.2677 9.5915C10.7955 9.06272 11.0594 8.42061 11.0594 7.66517C11.0594 6.90972 10.795 6.26811 10.2662 5.74033C9.73746 5.21256 9.09534 4.94867 8.3399 4.94867C7.58445 4.94867 6.94284 5.21306 6.41507 5.74183C5.88729 6.27061 5.6234 6.91272 5.6234 7.66817C5.6234 8.42361 5.88779 9.06522 6.41657 9.593C6.94534 10.1208 7.58745 10.3847 8.3429 10.3847ZM8.3414 9.46667C7.8414 9.46667 7.4164 9.29167 7.0664 8.94167C6.7164 8.59167 6.5414 8.16667 6.5414 7.66667C6.5414 7.16667 6.7164 6.74167 7.0664 6.39167C7.4164 6.04167 7.8414 5.86667 8.3414 5.86667C8.8414 5.86667 9.2664 6.04167 9.6164 6.39167C9.9664 6.74167 10.1414 7.16667 10.1414 7.66667C10.1414 8.16667 9.9664 8.59167 9.6164 8.94167C9.2664 9.29167 8.8414 9.46667 8.3414 9.46667ZM8.34223 12.3333C6.80923 12.3333 5.4124 11.9104 4.15173 11.0647C2.89107 10.219 1.96284 9.08633 1.36707 7.66667C1.96284 6.247 2.89073 5.11433 4.15073 4.26867C5.41084 3.42289 6.80746 3 8.34057 3C9.87357 3 11.2704 3.42289 12.5311 4.26867C13.7917 5.11433 14.72 6.247 15.3157 7.66667C14.72 9.08633 13.7921 10.219 12.5321 11.0647C11.272 11.9104 9.87534 12.3333 8.34223 12.3333ZM8.3414 11.3333C9.59696 11.3333 10.7497 11.0028 11.7997 10.3417C12.8497 9.68055 13.6525 8.78889 14.2081 7.66667C13.6525 6.54444 12.8497 5.65278 11.7997 4.99167C10.7497 4.33056 9.59696 4 8.3414 4C7.08584 4 5.93307 4.33056 4.88307 4.99167C3.83307 5.65278 3.03029 6.54444 2.47473 7.66667C3.03029 8.78889 3.83307 9.68055 4.88307 10.3417C5.93307 11.0028 7.08584 11.3333 8.3414 11.3333Z" fill="#1C1B1F"/>
</g>
</svg>
