<svg width="16" height="16" viewBox="0 0 16 16" fill="none" xmlns="http://www.w3.org/2000/svg">
<g clip-path="url(#clip0_2522_487)">
<path d="M4.66667 0H2.66667C1.95942 0 1.28115 0.280952 0.781049 0.781049C0.280952 1.28115 0 1.95942 0 2.66667L0 4.66667C0 5.37391 0.280952 6.05219 0.781049 6.55229C1.28115 7.05238 1.95942 7.33333 2.66667 7.33333H4.66667C5.37391 7.33333 6.05219 7.05238 6.55229 6.55229C7.05238 6.05219 7.33333 5.37391 7.33333 4.66667V2.66667C7.33333 1.95942 7.05238 1.28115 6.55229 0.781049C6.05219 0.280952 5.37391 0 4.66667 0V0ZM6 4.66667C6 5.02029 5.85952 5.35943 5.60948 5.60948C5.35943 5.85952 5.02029 6 4.66667 6H2.66667C2.31304 6 1.97391 5.85952 1.72386 5.60948C1.47381 5.35943 1.33333 5.02029 1.33333 4.66667V2.66667C1.33333 2.31304 1.47381 1.97391 1.72386 1.72386C1.97391 1.47381 2.31304 1.33333 2.66667 1.33333H4.66667C5.02029 1.33333 5.35943 1.47381 5.60948 1.72386C5.85952 1.97391 6 2.31304 6 2.66667V4.66667Z" fill="white"/>
<path d="M13.3337 0H11.3337C10.6264 0 9.94814 0.280952 9.44804 0.781049C8.94794 1.28115 8.66699 1.95942 8.66699 2.66667V4.66667C8.66699 5.37391 8.94794 6.05219 9.44804 6.55229C9.94814 7.05239 10.6264 7.33334 11.3337 7.33334H13.3337C14.0409 7.33334 14.7192 7.05239 15.2193 6.55229C15.7194 6.05219 16.0003 5.37391 16.0003 4.66667V2.66667C16.0003 1.95942 15.7194 1.28115 15.2193 0.781049C14.7192 0.280952 14.0409 0 13.3337 0V0ZM14.667 4.66667C14.667 5.02029 14.5265 5.35943 14.2765 5.60948C14.0264 5.85953 13.6873 6 13.3337 6H11.3337C10.98 6 10.6409 5.85953 10.3908 5.60948C10.1408 5.35943 10.0003 5.02029 10.0003 4.66667V2.66667C10.0003 2.31305 10.1408 1.97391 10.3908 1.72386C10.6409 1.47381 10.98 1.33333 11.3337 1.33333H13.3337C13.6873 1.33333 14.0264 1.47381 14.2765 1.72386C14.5265 1.97391 14.667 2.31305 14.667 2.66667V4.66667Z" fill="white"/>
<path d="M4.66666 8.66666H2.66666C1.95942 8.66666 1.28114 8.94762 0.781043 9.44771C0.280946 9.94781 -5.72205e-06 10.6261 -5.72205e-06 11.3333L-5.72205e-06 13.3333C-5.72205e-06 14.0406 0.280946 14.7189 0.781043 15.219C1.28114 15.7191 1.95942 16 2.66666 16H4.66666C5.37391 16 6.05218 15.7191 6.55228 15.219C7.05238 14.7189 7.33333 14.0406 7.33333 13.3333V11.3333C7.33333 10.6261 7.05238 9.94781 6.55228 9.44771C6.05218 8.94762 5.37391 8.66666 4.66666 8.66666ZM5.99999 13.3333C5.99999 13.687 5.85952 14.0261 5.60947 14.2761C5.35942 14.5262 5.02028 14.6667 4.66666 14.6667H2.66666C2.31304 14.6667 1.9739 14.5262 1.72385 14.2761C1.4738 14.0261 1.33333 13.687 1.33333 13.3333V11.3333C1.33333 10.9797 1.4738 10.6406 1.72385 10.3905C1.9739 10.1405 2.31304 10 2.66666 10H4.66666C5.02028 10 5.35942 10.1405 5.60947 10.3905C5.85952 10.6406 5.99999 10.9797 5.99999 11.3333V13.3333Z" fill="white"/>
<path d="M13.3337 8.66675H11.3337C10.6264 8.66675 9.94814 8.9477 9.44804 9.4478C8.94794 9.9479 8.66699 10.6262 8.66699 11.3334V13.3334C8.66699 14.0407 8.94794 14.7189 9.44804 15.219C9.94814 15.7191 10.6264 16.0001 11.3337 16.0001H13.3337C14.0409 16.0001 14.7192 15.7191 15.2193 15.219C15.7194 14.7189 16.0003 14.0407 16.0003 13.3334V11.3334C16.0003 10.6262 15.7194 9.9479 15.2193 9.4478C14.7192 8.9477 14.0409 8.66675 13.3337 8.66675ZM14.667 13.3334C14.667 13.687 14.5265 14.0262 14.2765 14.2762C14.0264 14.5263 13.6873 14.6668 13.3337 14.6668H11.3337C10.98 14.6668 10.6409 14.5263 10.3908 14.2762C10.1408 14.0262 10.0003 13.687 10.0003 13.3334V11.3334C10.0003 10.9798 10.1408 10.6407 10.3908 10.3906C10.6409 10.1406 10.98 10.0001 11.3337 10.0001H13.3337C13.6873 10.0001 14.0264 10.1406 14.2765 10.3906C14.5265 10.6407 14.667 10.9798 14.667 11.3334V13.3334Z" fill="white"/>
</g>
<defs>
<clipPath id="clip0_2522_487">
<rect width="16" height="16" fill="white"/>
</clipPath>
</defs>
</svg>
