<svg width="18" height="18" viewBox="0 0 18 18" fill="none" xmlns="http://www.w3.org/2000/svg">
<path fill-rule="evenodd" clip-rule="evenodd" d="M12 15C12.0994 15 12.1948 14.9604 12.2651 14.8901C12.3354 14.8198 12.375 14.7244 12.375 14.625C12.375 14.5255 12.3354 14.4301 12.2651 14.3598C12.1948 14.2895 12.0994 14.25 12 14.25C11.9005 14.25 11.8051 14.2895 11.7348 14.3598C11.6645 14.4301 11.625 14.5255 11.625 14.625C11.625 14.7244 11.6645 14.8198 11.7348 14.8901C11.8051 14.9604 11.9005 15 12 15ZM12 16.125C12.3978 16.125 12.7793 15.9669 13.0606 15.6856C13.3419 15.4043 13.5 15.0228 13.5 14.625C13.5 14.2271 13.3419 13.8456 13.0606 13.5643C12.7793 13.283 12.3978 13.125 12 13.125C11.6021 13.125 11.2206 13.283 10.9393 13.5643C10.658 13.8456 10.5 14.2271 10.5 14.625C10.5 15.0228 10.658 15.4043 10.9393 15.6856C11.2206 15.9669 11.6021 16.125 12 16.125ZM7.49996 15C7.59941 15 7.69479 14.9604 7.76512 14.8901C7.83545 14.8198 7.87496 14.7244 7.87496 14.625C7.87496 14.5255 7.83545 14.4301 7.76512 14.3598C7.69479 14.2895 7.59941 14.25 7.49996 14.25C7.4005 14.25 7.30512 14.2895 7.23479 14.3598C7.16446 14.4301 7.12496 14.5255 7.12496 14.625C7.12496 14.7244 7.16446 14.8198 7.23479 14.8901C7.30512 14.9604 7.4005 15 7.49996 15ZM7.49996 16.125C7.89778 16.125 8.27931 15.9669 8.56061 15.6856C8.84192 15.4043 8.99996 15.0228 8.99996 14.625C8.99996 14.2271 8.84192 13.8456 8.56061 13.5643C8.27931 13.283 7.89778 13.125 7.49996 13.125C7.10213 13.125 6.7206 13.283 6.43929 13.5643C6.15799 13.8456 5.99995 14.2271 5.99995 14.625C5.99995 15.0228 6.15799 15.4043 6.43929 15.6856C6.7206 15.9669 7.10213 16.125 7.49996 16.125ZM2.15696 2.31296C2.23971 2.18884 2.36837 2.10268 2.51465 2.07343C2.66092 2.04417 2.81283 2.07422 2.93695 2.15696L3.81296 2.74083C4.09284 2.92736 4.29043 3.21422 4.36496 3.54221L5.90808 10.3327C5.95518 10.54 6.07131 10.7251 6.23743 10.8577C6.40354 10.9903 6.60978 11.0625 6.82233 11.0625H12.6776C12.8901 11.0625 13.0964 10.9903 13.2625 10.8577C13.4286 10.7251 13.5447 10.54 13.5918 10.3327L14.7851 5.08271C14.8163 4.94543 14.8162 4.8029 14.7847 4.66568C14.7533 4.52846 14.6914 4.40008 14.6036 4.29006C14.5157 4.18005 14.4043 4.09122 14.2774 4.03018C14.1506 3.96914 14.0116 3.93745 13.8708 3.93746H8.06246C7.91327 3.93746 7.7702 3.87819 7.66471 3.7727C7.55922 3.66721 7.49996 3.52414 7.49996 3.37496C7.49996 3.22577 7.55922 3.0827 7.66471 2.97721C7.7702 2.87172 7.91327 2.81246 8.06246 2.81246H13.8708C15.1946 2.81246 16.1752 4.04133 15.882 5.33208L14.6887 10.5821C14.585 11.0379 14.3295 11.445 13.9641 11.7366C13.5987 12.0283 13.1451 12.1871 12.6776 12.1871H6.82233C6.35483 12.1871 5.9012 12.0283 5.5358 11.7366C5.1704 11.445 4.91491 11.0379 4.81121 10.5821L3.2677 3.7912C3.25706 3.74441 3.22888 3.70347 3.18895 3.67683L2.31296 3.09296C2.18884 3.0102 2.10268 2.88154 2.07343 2.73526C2.04417 2.58899 2.07422 2.43708 2.15696 2.31296Z" fill="white"/>
<path fill-rule="evenodd" clip-rule="evenodd" d="M7.49624 7.5228C7.60165 7.41741 7.7446 7.35818 7.89366 7.3581C8.04272 7.35803 8.18572 7.41713 8.29124 7.52242L8.95499 8.18505L11.2087 5.9313C11.2606 5.8776 11.3227 5.83478 11.3914 5.80533C11.46 5.77588 11.5338 5.7604 11.6085 5.75978C11.6832 5.75917 11.7573 5.77344 11.8264 5.80175C11.8955 5.83007 11.9583 5.87187 12.0111 5.92471C12.0639 5.97755 12.1056 6.04037 12.1339 6.10951C12.1621 6.17865 12.1763 6.25273 12.1756 6.32742C12.1749 6.4021 12.1594 6.47591 12.1299 6.54452C12.1004 6.61313 12.0575 6.67518 12.0037 6.72705L9.35249 9.3783C9.24702 9.48364 9.10405 9.5428 8.95499 9.5428C8.80592 9.5428 8.66295 9.48364 8.55749 9.3783L7.49624 8.31817C7.39078 8.21269 7.33154 8.06964 7.33154 7.92048C7.33154 7.77133 7.39078 7.62828 7.49624 7.5228Z" fill="white"/>
</svg>
