<svg width="18" height="18" viewBox="0 0 18 18" fill="none" xmlns="http://www.w3.org/2000/svg">
<path d="M17.7771 9.53618L13.7716 6.51878C13.6885 6.45618 13.5897 6.41798 13.4861 6.40846C13.3825 6.39893 13.2783 6.41848 13.1853 6.46488C13.0922 6.51129 13.0139 6.58273 12.9591 6.67117C12.9044 6.75962 12.8754 6.86157 12.8754 6.96559V8.55968H4.68424C4.67517 8.55961 4.66609 8.56007 4.65707 8.56105C4.54529 8.56787 4.44032 8.61708 4.36355 8.69862C4.28679 8.78016 4.24402 8.88791 4.24395 8.9999V10.3903L1.09335 8.0169L4.24409 5.64343V7.04521C4.24414 7.15722 4.2869 7.26499 4.36367 7.34656C4.44043 7.42812 4.54541 7.47734 4.65721 7.48418C4.66624 7.48514 4.67531 7.48559 4.68438 7.48555H10.9106C10.9687 7.48607 11.0264 7.47506 11.0803 7.45317C11.1341 7.43127 11.1832 7.39892 11.2245 7.35798C11.2658 7.31704 11.2986 7.26833 11.3209 7.21465C11.3433 7.16097 11.3548 7.10339 11.3548 7.04523C11.3548 6.98708 11.3433 6.9295 11.3209 6.87582C11.2986 6.82214 11.2658 6.77342 11.2245 6.73248C11.1832 6.69154 11.1341 6.65919 11.0803 6.6373C11.0264 6.6154 10.9687 6.6044 10.9106 6.60492H5.12458V4.99944C5.12457 4.89543 5.09558 4.79349 5.04086 4.70505C4.98613 4.61661 4.90784 4.54517 4.81477 4.49875C4.72169 4.45234 4.61753 4.43278 4.51396 4.44228C4.41039 4.45178 4.31152 4.48996 4.22844 4.55253L0.222846 7.57003C0.15363 7.62217 0.0974732 7.68968 0.0588013 7.76723C0.0201294 7.84478 0 7.93026 0 8.01692C0 8.10357 0.0201294 8.18905 0.0588013 8.2666C0.0974732 8.34415 0.15363 8.41166 0.222846 8.4638L4.22837 11.4812C4.57769 11.7631 5.13962 11.4818 5.12458 11.0344V9.4403H13.3157C13.3276 9.44031 13.3395 9.4397 13.3514 9.43848C13.4616 9.42958 13.5644 9.37952 13.6394 9.29825C13.7144 9.21699 13.756 9.11047 13.756 8.9999V7.60958L16.9066 9.98305L13.7559 12.3566V10.9546C13.7558 10.8435 13.7138 10.7365 13.6381 10.6551C13.5624 10.5737 13.4587 10.524 13.3479 10.5159C13.3372 10.5148 13.3264 10.5143 13.3156 10.5143H7.08942C6.97265 10.5143 6.86066 10.5607 6.77809 10.6433C6.69552 10.7258 6.64913 10.8378 6.64913 10.9546C6.64913 11.0714 6.69552 11.1834 6.77809 11.2659C6.86066 11.3485 6.97265 11.3949 7.08942 11.3949H12.8754V13.0007C12.8604 13.4481 13.4223 13.7293 13.7715 13.4476L17.7771 10.4301C17.8463 10.3779 17.9025 10.3104 17.9412 10.2329C17.9799 10.1553 18 10.0698 18 9.98319C18 9.89653 17.9799 9.81106 17.9412 9.73351C17.9025 9.65596 17.8463 9.58846 17.7771 9.53632V9.53618Z" fill="white"/>
</svg>
