<svg width="18" height="18" viewBox="0 0 18 18" fill="none" xmlns="http://www.w3.org/2000/svg">
<path d="M13.2547 7.10457C13.3144 6.9715 13.32 6.82047 13.2705 6.68333C13.2209 6.54619 13.12 6.43366 12.9891 6.36946C12.8582 6.30526 12.7074 6.29442 12.5686 6.33921C12.4299 6.384 12.3139 6.48094 12.2452 6.60957L11.1502 8.84232C10.8105 9.53382 9.81224 9.50007 9.52049 8.78682C8.86124 7.17507 6.60749 7.09932 5.84024 8.66232L4.74524 10.8951C4.6856 11.0281 4.67997 11.1792 4.72953 11.3163C4.77909 11.4534 4.87997 11.566 5.0109 11.6302C5.14182 11.6944 5.29257 11.7052 5.43134 11.6604C5.57011 11.6156 5.68606 11.5187 5.75474 11.3901L6.84974 9.15732C7.18949 8.46582 8.18774 8.49957 8.47949 9.21282C9.13874 10.8246 11.3925 10.9003 12.1597 9.33732L13.2547 7.10457Z" fill="white"/>
<path fill-rule="evenodd" clip-rule="evenodd" d="M12.3472 1.7805C11.4907 1.6875 10.4115 1.6875 9.03375 1.6875H8.96625C7.5885 1.6875 6.50925 1.6875 5.652 1.7805C4.77825 1.875 4.0695 2.0715 3.465 2.511C3.09892 2.77698 2.77698 3.09892 2.511 3.465C2.0715 4.07025 1.875 4.7775 1.7805 5.652C1.6875 6.50925 1.6875 7.5885 1.6875 8.96625V9.03375C1.6875 10.4115 1.6875 11.4907 1.7805 12.3472C1.875 13.2217 2.0715 13.9297 2.511 14.535C2.77698 14.9011 3.09892 15.223 3.465 15.489C4.07025 15.9285 4.7775 16.125 5.652 16.2195C6.50925 16.3125 7.5885 16.3125 8.96625 16.3125H9.03375C10.4115 16.3125 11.4907 16.3125 12.3472 16.2195C13.2217 16.125 13.9297 15.9285 14.535 15.489C14.9011 15.223 15.223 14.9011 15.489 14.535C15.9285 13.9297 16.125 13.2225 16.2195 12.348C16.3125 11.4908 16.3125 10.4115 16.3125 9.03375V8.96625C16.3125 7.5885 16.3125 6.50925 16.2195 5.652C16.125 4.77825 15.9285 4.0695 15.489 3.465C15.223 3.09892 14.9011 2.77698 14.535 2.511C13.9297 2.0715 13.2225 1.875 12.348 1.7805H12.3472ZM4.1265 3.4215C4.5075 3.144 4.995 2.98275 5.7735 2.89875C6.5625 2.81325 7.581 2.8125 9 2.8125C10.419 2.8125 11.4375 2.81325 12.2265 2.89875C13.005 2.98275 13.4925 3.14475 13.8735 3.4215C14.1435 3.618 14.382 3.8565 14.5785 4.1265C14.856 4.5075 15.0173 4.995 15.1012 5.7735C15.1868 6.5625 15.1875 7.581 15.1875 9C15.1875 10.419 15.1868 11.4375 15.1012 12.2265C15.0165 13.005 14.8552 13.4925 14.5785 13.8735C14.382 14.1435 14.1435 14.382 13.8735 14.5785C13.4925 14.856 13.005 15.0173 12.2265 15.1012C11.4375 15.1868 10.419 15.1875 9 15.1875C7.581 15.1875 6.5625 15.1868 5.7735 15.1012C4.995 15.0165 4.5075 14.8552 4.1265 14.5785C3.85597 14.3819 3.61806 14.144 3.4215 13.8735C3.144 13.4925 2.98275 13.005 2.89875 12.2265C2.81325 11.4375 2.8125 10.419 2.8125 9C2.8125 7.581 2.81325 6.5625 2.89875 5.7735C2.98275 4.995 3.14475 4.5075 3.4215 4.1265C3.618 3.8565 3.8565 3.618 4.1265 3.4215Z" fill="white"/>
</svg>
