<svg width="18" height="18" viewBox="0 0 18 18" fill="none" xmlns="http://www.w3.org/2000/svg">
<g clip-path="url(#clip0_3490_2030)">
<path d="M11.7973 11.5362C12.2766 11.3775 12.7501 11.7645 13.0733 11.916L13.5837 10.9691C13.2 10.7726 12.9512 10.5826 12.4513 10.4696V9.93237H11.3756V10.5472C10.4961 10.8858 10.1531 12.1822 10.9278 12.7868C11.25 13.0395 11.7045 13.2193 12.1476 13.3759C12.3574 13.4501 12.4463 13.5916 12.4119 13.7964C12.3855 13.9538 12.25 14.2207 11.9099 14.2229C11.5555 14.2252 11.4717 14.2122 11.2128 14.0428L10.7627 13.7484L10.1738 14.6485L10.6239 14.943C10.9067 15.128 11.1309 15.2201 11.3757 15.2636V15.8487H12.4514V15.2028C13.7488 14.7413 13.8983 12.8403 12.5062 12.3618C12.1666 12.2417 11.7924 12.0978 11.5917 11.9404C11.5228 11.8262 11.6284 11.5971 11.7973 11.5362Z" fill="white"/>
<path d="M14.5758 8.58683V2.90392L11.6719 0H1.02197V17.2829H9.28387C10.046 17.738 10.9362 18 11.8865 18C14.694 18 16.9781 15.7159 16.9781 12.9084C16.9781 11.0874 16.0171 9.48697 14.5758 8.58683ZM13.5001 3.34947V3.37052H11.2411V1.09051L13.5001 3.34947ZM2.09767 1.0757H10.1654V4.44622H13.5001V8.07892C12.9928 7.90899 12.4503 7.81673 11.8865 7.81673C9.07898 7.81673 6.79488 10.1008 6.79488 12.9084C6.79488 14.1657 7.25327 15.3179 8.01139 16.2072H2.09767V1.0757ZM11.8865 16.9243C9.67212 16.9243 7.87058 15.1228 7.87058 12.9084C7.87058 10.694 9.67212 8.89243 11.8865 8.89243C14.1009 8.89243 15.9025 10.694 15.9025 12.9084C15.9025 15.1228 14.1009 16.9243 11.8865 16.9243Z" fill="white"/>
<path d="M3.85461 2.61743H7.87055V3.69313H3.85461V2.61743ZM3.85461 4.76883H9.2331V5.84452H3.85461V4.76883ZM3.85461 6.92022H7.00999V7.99592H3.85461V6.92022Z" fill="white"/>
</g>
<defs>
<clipPath id="clip0_3490_2030">
<rect width="18" height="18" fill="white"/>
</clipPath>
</defs>
</svg>
