<svg width="22" height="22" viewBox="0 0 22 22" fill="none" xmlns="http://www.w3.org/2000/svg">
<mask id="mask0_2821_1101" style="mask-type:alpha" maskUnits="userSpaceOnUse" x="0" y="0" width="22" height="22">
<rect width="22" height="22" fill="#D9D9D9"/>
</mask>
<g mask="url(#mask0_2821_1101)">
<path d="M7.43217 18.2417C7.02548 18.2417 6.67813 18.0978 6.39015 17.81C6.10232 17.522 5.9584 17.1746 5.9584 16.7679V6.05005H4.8584V4.85838H8.80007V3.86426H13.2001V4.85838H17.1417V6.05005H16.0417V16.7581C16.0417 17.1819 15.8993 17.5351 15.6143 17.8178C15.3294 18.1004 14.9806 18.2417 14.568 18.2417H7.43217ZM14.8501 6.05005H7.15007V16.7679C7.15007 16.8503 7.1765 16.9179 7.22936 16.9708C7.28222 17.0236 7.34982 17.05 7.43217 17.05H14.568C14.6385 17.05 14.7032 17.0206 14.7618 16.9618C14.8207 16.9032 14.8501 16.8385 14.8501 16.7679V6.05005ZM9.1704 15.4H10.3618V7.70005H9.1704V15.4ZM11.6383 15.4H12.8297V7.70005H11.6383V15.4Z" fill="#CA4242"/>
</g>
</svg>
