<svg width="22" height="22" viewBox="0 0 22 22" fill="none" xmlns="http://www.w3.org/2000/svg">
<mask id="mask0_2821_1309" style="mask-type:alpha" maskUnits="userSpaceOnUse" x="0" y="0" width="22" height="22">
<rect width="22" height="22" fill="#D9D9D9"/>
</mask>
<g mask="url(#mask0_2821_1309)">
</g>
<g clip-path="url(#clip0_2821_1309)">
<path d="M16.3625 10.5816C15.9823 10.5816 15.675 10.8896 15.675 11.269V16.7691C15.675 17.1479 15.367 17.4565 14.9876 17.4565H5.36255C4.98302 17.4565 4.67509 17.1479 4.67509 16.7691V7.14404C4.67509 6.76525 4.98302 6.45659 5.36255 6.45659H10.8626C11.2428 6.45659 11.55 6.14856 11.55 5.76913C11.55 5.3896 11.2428 5.08154 10.8626 5.08154H5.36255C4.22543 5.08154 3.30005 6.00693 3.30005 7.14404V16.7691C3.30005 17.9062 4.22543 18.8316 5.36255 18.8316H14.9876C16.1247 18.8316 17.0501 17.9062 17.0501 16.7691V11.269C17.0501 10.8889 16.7427 10.5816 16.3625 10.5816Z" fill="#2A2A2A"/>
<path d="M9.74608 9.95518C9.6983 10.0032 9.66557 10.0641 9.65191 10.1304L9.16587 12.5615C9.14322 12.6742 9.17895 12.7904 9.26004 12.8722C9.29203 12.9041 9.33 12.9294 9.37177 12.9466C9.41354 12.9638 9.4583 12.9726 9.50348 12.9726C9.52539 12.9726 9.54817 12.9705 9.57083 12.9658L12.0012 12.4797C12.0685 12.4659 12.1297 12.4336 12.1772 12.3854L17.6167 6.9459L15.1863 4.5157L9.74608 9.95518ZM19.2968 2.83479C18.6266 2.16445 17.5362 2.16445 16.8665 2.83479L15.915 3.78621L18.3454 6.21655L19.2968 5.26499C19.6214 4.94121 19.8001 4.50941 19.8001 4.05018C19.8001 3.59095 19.6214 3.15918 19.2968 2.83479Z" fill="#2A2A2A"/>
</g>
<defs>
<clipPath id="clip0_2821_1309">
<rect width="16.5" height="16.5" fill="white" transform="translate(3.30005 2.2998)"/>
</clipPath>
</defs>
</svg>
