<svg width="22" height="22" viewBox="0 0 22 22" fill="none" xmlns="http://www.w3.org/2000/svg">
<mask id="mask0_2821_1340" style="mask-type:alpha" maskUnits="userSpaceOnUse" x="0" y="0" width="22" height="22">
<rect width="22" height="22" fill="#D9D9D9"/>
</mask>
<g mask="url(#mask0_2821_1340)">
<path d="M11.0019 14.2789C12.0407 14.2789 12.9229 13.9154 13.6486 13.1883C14.3743 12.4612 14.7371 11.5783 14.7371 10.5396C14.7371 9.50087 14.3736 8.61865 13.6465 7.89296C12.9194 7.16726 12.0365 6.80442 10.9978 6.80442C9.95907 6.80442 9.07685 7.16795 8.35116 7.89502C7.62546 8.62209 7.26262 9.50499 7.26262 10.5437C7.26262 11.5825 7.62615 12.4647 8.35322 13.1904C9.08029 13.9161 9.96319 14.2789 11.0019 14.2789ZM10.9999 13.0167C10.3124 13.0167 9.72799 12.776 9.24674 12.2948C8.76549 11.8135 8.52487 11.2292 8.52487 10.5417C8.52487 9.85417 8.76549 9.26979 9.24674 8.78854C9.72799 8.30729 10.3124 8.06667 10.9999 8.06667C11.6874 8.06667 12.2717 8.30729 12.753 8.78854C13.2342 9.26979 13.4749 9.85417 13.4749 10.5417C13.4749 11.2292 13.2342 11.8135 12.753 12.2948C12.2717 12.776 11.6874 13.0167 10.9999 13.0167ZM11.001 16.9583C8.89314 16.9583 6.97249 16.3769 5.23907 15.2139C3.50566 14.0511 2.22935 12.4937 1.41016 10.5417C2.22935 8.58962 3.5052 7.03221 5.2377 5.86942C6.97035 4.70647 8.89069 4.125 10.9987 4.125C13.1066 4.125 15.0272 4.70647 16.7607 5.86942C18.4941 7.03221 19.7704 8.58962 20.5896 10.5417C19.7704 12.4937 18.4945 14.0511 16.762 15.2139C15.0294 16.3769 13.109 16.9583 11.001 16.9583ZM10.9999 15.5833C12.7263 15.5833 14.3113 15.1288 15.7551 14.2198C17.1988 13.3108 18.3026 12.0847 19.0665 10.5417C18.3026 8.99861 17.1988 7.77257 15.7551 6.86354C14.3113 5.95451 12.7263 5.5 10.9999 5.5C9.27348 5.5 7.68841 5.95451 6.24466 6.86354C4.80091 7.77257 3.69709 8.99861 2.9332 10.5417C3.69709 12.0847 4.80091 13.3108 6.24466 14.2198C7.68841 15.1288 9.27348 15.5833 10.9999 15.5833Z" fill="#3C35C1"/>
</g>
</svg>
