<svg width="22" height="22" viewBox="0 0 22 22" fill="none" xmlns="http://www.w3.org/2000/svg">
<mask id="mask0_2821_1305" style="mask-type:alpha" maskUnits="userSpaceOnUse" x="0" y="0" width="22" height="22">
<rect width="22" height="22" fill="#D9D9D9"/>
</mask>
<g mask="url(#mask0_2821_1305)">
<path d="M7.43217 18.2415C7.02548 18.2415 6.67813 18.0976 6.39015 17.8097C6.10232 17.5217 5.9584 17.1744 5.9584 16.7677V6.04981H4.8584V4.85814H8.80007V3.86401H13.2001V4.85814H17.1417V6.04981H16.0417V16.7578C16.0417 17.1817 15.8993 17.5349 15.6143 17.8175C15.3294 18.1002 14.9806 18.2415 14.568 18.2415H7.43217ZM14.8501 6.04981H7.15007V16.7677C7.15007 16.85 7.1765 16.9177 7.22936 16.9705C7.28222 17.0234 7.34982 17.0498 7.43217 17.0498H14.568C14.6385 17.0498 14.7032 17.0204 14.7618 16.9616C14.8207 16.9029 14.8501 16.8383 14.8501 16.7677V6.04981ZM9.1704 15.3998H10.3618V7.69981H9.1704V15.3998ZM11.6383 15.3998H12.8297V7.69981H11.6383V15.3998Z" fill="#2A2A2A"/>
</g>
</svg>
