<svg width="16" height="16" viewBox="0 0 16 16" fill="none" xmlns="http://www.w3.org/2000/svg">
<mask id="mask0_2821_1028" style="mask-type:alpha" maskUnits="userSpaceOnUse" x="0" y="0" width="16" height="16">
<rect width="16" height="16" fill="#D9D9D9"/>
</mask>
<g mask="url(#mask0_2821_1028)">
<path d="M7.5 13V7.39995L5.85642 9.04353L5.15387 8.32047L7.99998 5.47435L10.8461 8.32047L10.1436 9.04353L8.49997 7.39995V13H7.5ZM3 6.0128V4.20513C3 3.86838 3.11667 3.58333 3.35 3.35C3.58333 3.11667 3.86838 3 4.20513 3H11.7948C12.1316 3 12.4166 3.11667 12.65 3.35C12.8833 3.58333 13 3.86838 13 4.20513V6.0128H12V4.20513C12 4.15385 11.9786 4.10683 11.9359 4.06408C11.8931 4.02135 11.8461 3.99998 11.7948 3.99998H4.20513C4.15384 3.99998 4.10683 4.02135 4.06408 4.06408C4.02135 4.10683 3.99998 4.15385 3.99998 4.20513V6.0128H3Z" fill="#373940"/>
</g>
</svg>
