<svg width="31" height="30" viewBox="0 0 31 30" fill="none" xmlns="http://www.w3.org/2000/svg">
<rect x="0.5" width="30" height="30" rx="4" fill="#ECEAFF"/>
<path d="M14.8166 14.4055H10.0722C9.28686 14.4055 8.53369 14.0936 7.97837 13.5382C7.42306 12.9829 7.11108 12.2298 7.11108 11.4444V9.0722C7.11108 8.28686 7.42306 7.53369 7.97837 6.97838C8.53369 6.42306 9.28686 6.11109 10.0722 6.11109H12.4444C13.2298 6.11109 13.9829 6.42306 14.5382 6.97838C15.0936 7.53369 15.4055 8.28686 15.4055 9.0722V13.8111C15.4055 13.9678 15.3437 14.1182 15.2334 14.2295C15.1231 14.3408 14.9733 14.4041 14.8166 14.4055ZM10.0722 7.29442C9.6007 7.29442 9.14851 7.48172 8.81512 7.81512C8.48172 8.14852 8.29442 8.6007 8.29442 9.0722V11.4444C8.29442 11.9159 8.48172 12.3681 8.81512 12.7015C9.14851 13.0349 9.6007 13.2222 10.0722 13.2222H14.2222V9.0722C14.2222 8.6007 14.0349 8.14852 13.7015 7.81512C13.3681 7.48172 12.9159 7.29442 12.4444 7.29442H10.0722ZM21.9278 14.4055H17.1833C17.0257 14.4055 16.8745 14.3429 16.763 14.2314C16.6515 14.1199 16.5889 13.9687 16.5889 13.8111V9.0722C16.5889 8.68287 16.6656 8.29737 16.8148 7.93775C16.964 7.57813 17.1826 7.25145 17.4581 6.97641C17.7337 6.70137 18.0608 6.48338 18.4207 6.33489C18.7806 6.18641 19.1662 6.11036 19.5555 6.11109H21.9278C22.7131 6.11109 23.4663 6.42306 24.0216 6.97838C24.5769 7.53369 24.8889 8.28686 24.8889 9.0722V11.4444C24.8889 12.2298 24.5769 12.9829 24.0216 13.5382C23.4663 14.0936 22.7131 14.4055 21.9278 14.4055ZM17.7778 13.2222H21.9278C22.3992 13.2222 22.8514 13.0349 23.1848 12.7015C23.5182 12.3681 23.7055 11.9159 23.7055 11.4444V9.0722C23.7055 8.6007 23.5182 8.14852 23.1848 7.81512C22.8514 7.48172 22.3992 7.29442 21.9278 7.29442H19.5555C19.084 7.29442 18.6318 7.48172 18.2985 7.81512C17.9651 8.14852 17.7778 8.6007 17.7778 9.0722V13.2222ZM12.4444 23.8889H10.0722C9.28686 23.8889 8.53369 23.5769 7.97837 23.0216C7.42306 22.4663 7.11108 21.7131 7.11108 20.9278V18.5555C7.11108 17.7702 7.42306 17.017 7.97837 16.4617C8.53369 15.9064 9.28686 15.5944 10.0722 15.5944H14.8111C14.9687 15.5944 15.1199 15.6571 15.2314 15.7685C15.3429 15.88 15.4055 16.0312 15.4055 16.1889V20.9278C15.4055 21.7131 15.0936 22.4663 14.5382 23.0216C13.9829 23.5769 13.2298 23.8889 12.4444 23.8889ZM10.0722 16.7778C9.6007 16.7778 9.14851 16.9651 8.81512 17.2985C8.48172 17.6319 8.29442 18.084 8.29442 18.5555V20.9278C8.29442 21.3993 8.48172 21.8514 8.81512 22.1848C9.14851 22.5182 9.6007 22.7055 10.0722 22.7055H12.4444C12.9159 22.7055 13.3681 22.5182 13.7015 22.1848C14.0349 21.8514 14.2222 21.3993 14.2222 20.9278V16.7778H10.0722ZM21.9278 23.8889H19.5555C18.7702 23.8889 18.017 23.5769 17.4617 23.0216C16.9064 22.4663 16.5944 21.7131 16.5944 20.9278V16.1833C16.5944 16.0257 16.657 15.8745 16.7685 15.763C16.88 15.6515 17.0312 15.5889 17.1889 15.5889H21.9278C22.3171 15.5889 22.7026 15.6656 23.0622 15.8148C23.4218 15.964 23.7485 16.1826 24.0235 16.4581C24.2986 16.7337 24.5166 17.0608 24.6651 17.4207C24.8135 17.7806 24.8896 18.1662 24.8889 18.5555V20.9278C24.8889 21.7131 24.5769 22.4663 24.0216 23.0216C23.4663 23.5769 22.7131 23.8889 21.9278 23.8889ZM17.7778 16.7778V20.9278C17.7778 21.3993 17.9651 21.8514 18.2985 22.1848C18.6318 22.5182 19.084 22.7055 19.5555 22.7055H21.9278C22.3992 22.7055 22.8514 22.5182 23.1848 22.1848C23.5182 21.8514 23.7055 21.3993 23.7055 20.9278V18.5555C23.7055 18.084 23.5182 17.6319 23.1848 17.2985C22.8514 16.9651 22.3992 16.7778 21.9278 16.7778H17.7778Z" fill="#5F5996"/>
</svg>
