<svg width="30" height="30" viewBox="0 0 30 30" fill="none" xmlns="http://www.w3.org/2000/svg">
<rect width="30" height="30" rx="4" fill="#FFEEDB"/>
<path d="M15 22.2917C11.5833 22.2917 10.5608 21.445 10.3917 21.275C10.3231 21.2064 10.2714 21.1229 10.2406 21.0309C10.2098 20.9389 10.2007 20.8411 10.2142 20.745L10.6392 17.7733C10.7777 16.8321 11.249 15.9717 11.9676 15.3482C12.6862 14.7247 13.6045 14.3794 14.5558 14.375H15.4408C16.3922 14.3794 17.3105 14.7247 18.0291 15.3482C18.7477 15.9717 19.219 16.8321 19.3575 17.7733L19.7825 20.745C19.796 20.8411 19.7869 20.9389 19.7561 21.0309C19.7253 21.1229 19.6736 21.2064 19.605 21.275C19.4392 21.445 18.4167 22.2917 15 22.2917ZM11.51 20.52C12.6247 20.9335 13.8131 21.1112 15 21.0417C16.1872 21.1115 17.3759 20.9327 18.49 20.5167L18.1233 17.95C18.0285 17.3059 17.7058 16.7171 17.2139 16.2905C16.7221 15.8639 16.0936 15.6278 15.4425 15.625H14.5575C13.9064 15.6278 13.2779 15.8639 12.7861 16.2905C12.2942 16.7171 11.9716 17.3059 11.8767 17.95L11.51 20.52Z" fill="#6B5133"/>
<path d="M9.58338 19.7917C7.05255 19.7917 6.28338 18.875 6.15505 18.6917C6.10774 18.6245 6.07424 18.5485 6.0565 18.4683C6.03876 18.388 6.03714 18.3051 6.05171 18.2242L6.23505 17.19C6.35259 16.5137 6.67225 15.889 7.15193 15.398C7.6316 14.907 8.24876 14.5729 8.9221 14.4396C9.59544 14.3064 10.2934 14.3802 10.9239 14.6515C11.5544 14.9227 12.0879 15.3787 12.4542 15.9592C12.5426 16.0995 12.5717 16.2692 12.5349 16.431C12.4982 16.5927 12.3987 16.7333 12.2584 16.8217C12.118 16.9101 11.9483 16.9391 11.7866 16.9024C11.6248 16.8657 11.4843 16.7662 11.3959 16.6258C11.1637 16.2595 10.8259 15.972 10.4271 15.8013C10.0284 15.6306 9.58723 15.5846 9.16183 15.6695C8.73644 15.7544 8.34672 15.9661 8.04399 16.2768C7.74126 16.5875 7.53971 16.9825 7.46588 17.41L7.34421 18.0967C8.03753 18.4421 8.81066 18.5958 9.58338 18.5417C10.0422 18.5487 10.5004 18.504 10.9492 18.4083C11.0299 18.3873 11.114 18.3826 11.1966 18.3945C11.2791 18.4064 11.3584 18.4348 11.4299 18.4779C11.5013 18.5209 11.5634 18.5779 11.6124 18.6453C11.6615 18.7127 11.6966 18.7893 11.7156 18.8705C11.7346 18.9517 11.7372 19.0359 11.7232 19.1181C11.7092 19.2004 11.6788 19.2789 11.634 19.3492C11.5891 19.4196 11.5306 19.4802 11.462 19.5275C11.3933 19.5749 11.3159 19.608 11.2342 19.625C10.6921 19.7432 10.1382 19.7991 9.58338 19.7917ZM9.58338 13.9583C9.13013 13.9583 8.68706 13.8239 8.3102 13.5721C7.93334 13.3203 7.63961 12.9624 7.46616 12.5437C7.29271 12.1249 7.24732 11.6641 7.33575 11.2196C7.42417 10.775 7.64243 10.3667 7.96293 10.0462C8.28342 9.72572 8.69176 9.50746 9.1363 9.41903C9.58084 9.33061 10.0416 9.37599 10.4604 9.54944C10.8791 9.72289 11.237 10.0166 11.4888 10.3935C11.7406 10.7703 11.875 11.2134 11.875 11.6667C11.8746 12.2743 11.633 12.857 11.2033 13.2866C10.7737 13.7163 10.191 13.9579 9.58338 13.9583ZM9.58338 10.625C9.37736 10.625 9.17596 10.6861 9.00466 10.8006C8.83336 10.915 8.69985 11.0777 8.62101 11.268C8.54217 11.4584 8.52154 11.6678 8.56173 11.8699C8.60192 12.072 8.70113 12.2576 8.84681 12.4032C8.99249 12.5489 9.1781 12.6481 9.38016 12.6883C9.58223 12.7285 9.79167 12.7079 9.98201 12.629C10.1724 12.5502 10.335 12.4167 10.4495 12.2454C10.564 12.0741 10.625 11.8727 10.625 11.6667C10.6246 11.3905 10.5147 11.1258 10.3195 10.9306C10.1242 10.7353 9.85951 10.6254 9.58338 10.625ZM20.4167 19.7917C19.8619 19.7991 19.308 19.7432 18.7659 19.625C18.6842 19.608 18.6068 19.5749 18.5381 19.5275C18.4695 19.4802 18.411 19.4196 18.3661 19.3492C18.3213 19.2789 18.2909 19.2004 18.2769 19.1181C18.2629 19.0359 18.2655 18.9517 18.2845 18.8705C18.3035 18.7893 18.3386 18.7127 18.3877 18.6453C18.4367 18.5779 18.4988 18.5209 18.5702 18.4779C18.6417 18.4348 18.721 18.4064 18.8035 18.3945C18.8861 18.3826 18.9702 18.3873 19.0509 18.4083C19.4997 18.504 19.9579 18.5487 20.4167 18.5417C21.1902 18.5957 21.9639 18.4396 22.6559 18.09L22.535 17.4092C22.449 16.9098 22.1892 16.4568 21.8016 16.1304C21.414 15.8039 20.9235 15.6249 20.4167 15.625C20.0544 15.6235 19.6978 15.7146 19.3806 15.8896C19.0634 16.0646 18.7961 16.3177 18.6042 16.625C18.5604 16.6945 18.5034 16.7547 18.4364 16.8021C18.3693 16.8496 18.2936 16.8834 18.2135 16.9015C18.1334 16.9197 18.0505 16.922 17.9696 16.9081C17.8886 16.8943 17.8112 16.8646 17.7417 16.8208C17.6722 16.7771 17.612 16.72 17.5646 16.653C17.5171 16.586 17.4834 16.5102 17.4652 16.4301C17.4284 16.2684 17.4575 16.0987 17.5459 15.9583C17.9122 15.3775 18.4459 14.9213 19.0766 14.65C19.7074 14.3786 20.4056 14.3048 21.0792 14.4383C21.7528 14.5717 22.3701 14.9062 22.8497 15.3976C23.3293 15.889 23.6488 16.5142 23.7659 17.1908L23.9484 18.2233C23.963 18.3042 23.9613 18.3872 23.9436 18.4674C23.9259 18.5477 23.8924 18.6236 23.8451 18.6908C23.7167 18.875 22.9475 19.7917 20.4167 19.7917Z" fill="#6B5133"/>
<path d="M20.4167 13.9583C19.9634 13.9583 19.5203 13.8239 19.1435 13.5721C18.7666 13.3203 18.4729 12.9624 18.2994 12.5437C18.126 12.1249 18.0806 11.6641 18.169 11.2196C18.2575 10.775 18.4757 10.3667 18.7962 10.0462C19.1167 9.72572 19.525 9.50746 19.9696 9.41903C20.4141 9.33061 20.8749 9.37599 21.2937 9.54944C21.7124 9.72289 22.0703 10.0166 22.3221 10.3935C22.5739 10.7703 22.7083 11.2134 22.7083 11.6667C22.7079 12.2743 22.4663 12.857 22.0366 13.2866C21.607 13.7163 21.0243 13.9579 20.4167 13.9583ZM20.4167 10.625C20.2106 10.625 20.0092 10.6861 19.8379 10.8006C19.6666 10.915 19.5331 11.0777 19.4543 11.268C19.3755 11.4584 19.3548 11.6678 19.395 11.8699C19.4352 12.072 19.5344 12.2576 19.6801 12.4032C19.8258 12.5489 20.0114 12.6481 20.2134 12.6883C20.4155 12.7285 20.625 12.7079 20.8153 12.629C21.0056 12.5502 21.1683 12.4167 21.2828 12.2454C21.3972 12.0741 21.4583 11.8727 21.4583 11.6667C21.4579 11.3905 21.348 11.1258 21.1528 10.9306C20.9575 10.7353 20.6928 10.6254 20.4167 10.625Z" fill="#6B5133"/>
<path d="M15 13.9583C14.3819 13.9583 13.7777 13.775 13.2638 13.4317C12.7499 13.0883 12.3494 12.6002 12.1129 12.0292C11.8764 11.4582 11.8145 10.8298 11.935 10.2237C12.0556 9.61747 12.3533 9.06064 12.7903 8.62361C13.2273 8.18657 13.7842 7.88894 14.3903 7.76836C14.9965 7.64778 15.6249 7.70967 16.1959 7.94619C16.7669 8.18271 17.255 8.58325 17.5983 9.09716C17.9417 9.61106 18.125 10.2152 18.125 10.8333C18.1241 11.6618 17.7946 12.4562 17.2087 13.042C16.6229 13.6279 15.8285 13.9574 15 13.9583ZM15 8.95831C14.6292 8.95831 14.2666 9.06828 13.9583 9.27431C13.65 9.48034 13.4096 9.77317 13.2677 10.1158C13.1258 10.4584 13.0887 10.8354 13.161 11.1991C13.2334 11.5628 13.412 11.8969 13.6742 12.1591C13.9364 12.4214 14.2705 12.5999 14.6342 12.6723C14.9979 12.7446 15.3749 12.7075 15.7175 12.5656C16.0601 12.4237 16.353 12.1834 16.559 11.875C16.765 11.5667 16.875 11.2042 16.875 10.8333C16.8746 10.3362 16.6769 9.85951 16.3253 9.50798C15.9738 9.15644 15.4971 8.95876 15 8.95831Z" fill="#6B5133"/>
</svg>
