<svg width="31" height="30" viewBox="0 0 31 30" fill="none" xmlns="http://www.w3.org/2000/svg">
<rect x="0.5" width="30" height="30" rx="4" fill="#ECEAFF"/>
<g clip-path="url(#clip0_3517_1062)">
<path d="M23.9065 19.8704C23.5603 19.6128 23.0709 19.6847 22.8133 20.0309C22.671 20.2221 22.5207 20.4073 22.3628 20.5859C22.0771 20.9092 22.1074 21.4029 22.4307 21.6887C22.5733 21.8151 22.7573 21.8849 22.9478 21.8846C23.1639 21.8846 23.3791 21.7955 23.5335 21.6208C23.7204 21.4093 23.8984 21.1899 24.067 20.9634C24.3245 20.6173 24.2527 20.1279 23.9065 19.8704ZM25.213 16.2065C24.7917 16.1147 24.3753 16.3821 24.2835 16.8037C24.2328 17.0364 24.1723 17.2668 24.102 17.4943C23.9746 17.9066 24.2056 18.344 24.6178 18.4714C24.6946 18.4951 24.7723 18.5064 24.8487 18.5064C25.1823 18.5064 25.4912 18.291 25.5949 17.9555C25.6782 17.6855 25.7501 17.4121 25.8103 17.136C25.902 16.7145 25.6346 16.2983 25.213 16.2065ZM20.146 22.3724C19.9379 22.4886 19.725 22.5959 19.5078 22.694C19.1145 22.8716 18.9397 23.3343 19.1173 23.7276C19.2478 24.0165 19.5321 24.1875 19.8298 24.1875C19.9373 24.1875 20.0465 24.1652 20.1508 24.118C20.4084 24.0016 20.6609 23.8744 20.9078 23.7366C21.2845 23.5263 21.4194 23.0504 21.209 22.6737C20.9987 22.297 20.5228 22.1621 20.146 22.3724ZM15.2187 8.75V14.6764L12.3539 17.5412C12.0489 17.8463 12.0489 18.3409 12.3539 18.646C12.4264 18.7187 12.5125 18.7763 12.6073 18.8156C12.7021 18.8548 12.8038 18.875 12.9064 18.8748C13.009 18.875 13.1106 18.8548 13.2055 18.8155C13.3003 18.7763 13.3864 18.7187 13.4589 18.646L16.5524 15.5524C16.6989 15.4059 16.7812 15.2072 16.7812 15V8.75C16.7812 8.31852 16.4315 7.96875 16 7.96875C15.5685 7.96875 15.2187 8.31852 15.2187 8.75Z" fill="#4A438A"/>
<path d="M25.2188 6.67969C24.7873 6.67969 24.4375 7.02945 24.4375 7.46094V9.63031C22.6191 6.77844 19.4434 5 16 5C13.3289 5 10.8177 6.0402 8.92891 7.92891C7.0402 9.8177 6 12.3289 6 15C6 17.6711 7.0402 20.1823 8.92891 22.0711C10.8177 23.9598 13.3289 25 16 25C16.0066 25 16.013 24.9992 16.0195 24.999C16.0261 24.9992 16.0325 25 16.0391 25C16.3206 25 16.605 24.9881 16.8843 24.9648C17.3142 24.9287 17.6336 24.551 17.5976 24.1211C17.5616 23.6911 17.1843 23.3716 16.7539 23.4077C16.5178 23.4275 16.2773 23.4375 16.0391 23.4375C16.0325 23.4375 16.0261 23.4383 16.0195 23.4385C16.013 23.4383 16.0066 23.4375 16 23.4375C11.3475 23.4375 7.5625 19.6525 7.5625 15C7.5625 10.3475 11.3475 6.5625 16 6.5625C18.9984 6.5625 21.7561 8.16066 23.2631 10.7031H21.115C20.6835 10.7031 20.3337 11.0529 20.3337 11.4844C20.3337 11.9159 20.6835 12.2656 21.115 12.2656H23.5C23.9587 12.2662 24.4086 12.1397 24.7999 11.9003C24.8241 11.8865 24.8475 11.8715 24.87 11.8553C25.55 11.408 26 10.6386 26 9.76562V7.46094C26 7.02945 25.6502 6.67969 25.2188 6.67969Z" fill="#4A438A"/>
</g>
<defs>
<clipPath id="clip0_3517_1062">
<rect width="20" height="20" fill="white" transform="translate(6 5)"/>
</clipPath>
</defs>
</svg>
