<svg width="40" height="40" viewBox="0 0 40 40" fill="none" xmlns="http://www.w3.org/2000/svg">
<circle cx="20" cy="20" r="20" fill="#3D325E"/>
<path fill-rule="evenodd" clip-rule="evenodd" d="M22.213 9.5C21.1705 9.5 18.834 9.5 17.789 9.502C17.6533 9.50198 17.5191 9.52967 17.3945 9.58337C17.2699 9.63706 17.1576 9.71564 17.0644 9.81427C16.9713 9.91291 16.8992 10.0295 16.8527 10.157C16.8062 10.2844 16.7862 10.4201 16.794 10.5555L16.796 10.573C16.9025 11.736 17.2985 13.0095 17.533 13.6885C16.0005 15.563 14.505 17.6505 14.1045 20.4285C14.0951 20.4934 14.0986 20.5596 14.1148 20.6232C14.131 20.6868 14.1595 20.7466 14.1988 20.7991C14.2381 20.8517 14.2873 20.896 14.3437 20.9295C14.4001 20.963 14.4626 20.9851 14.5275 20.9945C14.5924 21.0039 14.6586 21.0004 14.7222 20.9842C14.7858 20.968 14.8455 20.9395 14.8981 20.9002C14.9507 20.8609 14.995 20.8117 15.0285 20.7553C15.062 20.6989 15.0841 20.6364 15.0935 20.5715C15.4535 18.078 16.787 16.196 18.161 14.5H21.963C23.3305 16.194 24.5775 18.075 24.912 20.5665C24.9296 20.698 24.9988 20.8171 25.1042 20.8976C25.2097 20.9781 25.3428 21.0134 25.4743 20.9958C25.6057 20.9781 25.7248 20.909 25.8053 20.8035C25.8858 20.6981 25.9211 20.565 25.9035 20.4335C25.5295 17.651 24.123 15.561 22.588 13.6835L22.575 13.671C22.777 12.995 23.1185 11.724 23.211 10.5645C23.2115 10.5595 23.213 10.553 23.213 10.548C23.2197 10.4127 23.1987 10.2774 23.1514 10.1504C23.1041 10.0234 23.0315 9.90738 22.938 9.80935C22.8444 9.71131 22.7319 9.63333 22.6073 9.58015C22.4827 9.52697 22.3485 9.4997 22.213 9.5ZM22.214 10.499C22.118 11.6495 21.764 12.9125 21.584 13.5H18.5245C18.3185 12.9235 17.902 11.651 17.793 10.502L18.7765 10.501L20.003 10.5L22.214 10.499ZM16.746 21C16.629 21 16.5158 21.0411 16.426 21.116L13.4375 23.6095C13.2525 22.9655 12.675 22.5 12 22.5C11.179 22.5 10.5 23.188 10.5 24.05V28.95C10.5 29.812 11.179 30.5 12 30.5C12.636 30.5 13.1845 30.0865 13.4005 29.5H21.126C21.983 29.4992 22.8182 29.2301 23.5145 28.7305L28.9015 24.88C28.92 24.866 28.938 24.8515 28.955 24.836C29.644 24.1805 29.684 23.075 29.043 22.37C28.7424 22.036 28.3218 21.8346 27.8731 21.8098C27.4244 21.785 26.9842 21.9387 26.6485 22.2375L20.924 25.5H17.8615C17.628 25.5 17.5305 25.239 17.5305 25C17.5305 24.875 17.573 24.735 17.6525 24.627C17.7025 24.559 17.769 24.5 17.8615 24.5H20.4465C21.393 24.5 22.168 23.719 22.168 22.75C22.168 21.7815 21.393 21 20.4465 21H16.746ZM16.927 22H20.4465C20.848 22 21.168 22.3395 21.168 22.75C21.168 23.1605 20.848 23.5 20.4465 23.5H17.8615C17.0515 23.5 16.5305 24.3075 16.5305 25C16.5305 25.799 17.0805 26.5 17.8615 26.5H21.0565C21.1435 26.5001 21.2289 26.4775 21.3045 26.4345L27.1935 23.077C27.2285 23.0565 27.2605 23.033 27.29 23.005C27.3582 22.9396 27.4389 22.8886 27.5273 22.855C27.6156 22.8214 27.7099 22.8059 27.8043 22.8094C27.8988 22.813 27.9916 22.8355 28.0771 22.8756C28.1627 22.9157 28.2394 22.9727 28.3025 23.043C28.4327 23.1867 28.5036 23.3743 28.5011 23.5682C28.4986 23.762 28.4228 23.9477 28.289 24.088L22.9335 27.918C22.4065 28.2958 21.7745 28.4993 21.126 28.5H13.5V24.8585L16.927 22ZM12 23.5C12.283 23.5 12.5 23.753 12.5 24.05V28.95C12.5 29.247 12.283 29.5 12 29.5C11.717 29.5 11.5 29.247 11.5 28.95V24.05C11.5 23.753 11.717 23.5 12 23.5Z" fill="white"/>
</svg>
