<svg width="30" height="30" viewBox="0 0 30 30" fill="none" xmlns="http://www.w3.org/2000/svg">
<rect width="30" height="30" rx="4" fill="#FFEEDB"/>
<path d="M13.8258 6.89585C14.5788 6.59054 15.4211 6.59054 16.1741 6.89585L22.4225 9.42918C22.6915 9.53814 22.9218 9.7249 23.0841 9.96554C23.2464 10.2062 23.3331 10.4898 23.3333 10.78V18.8242C23.3333 19.1146 23.2466 19.3983 23.0843 19.6391C22.9221 19.8799 22.6916 20.0668 22.4225 20.1758L16.1741 22.7092C15.4211 23.0145 14.5788 23.0145 13.8258 22.7092L7.57746 20.1758C7.30832 20.0668 7.07785 19.8799 6.91558 19.6391C6.75331 19.3983 6.66662 19.1146 6.66663 18.8242V10.78C6.66679 10.4898 6.75355 10.2062 6.91582 9.96554C7.07808 9.7249 7.30845 9.53814 7.57746 9.42918L13.8258 6.89585ZM15.7041 8.05418C15.2525 7.87118 14.7474 7.87118 14.2958 8.05418L12.7 8.70001L18.9725 11.1392L21.1966 10.2808L15.7041 8.05418ZM17.2425 11.8083L11.0125 9.38501L8.82496 10.2717L15.0008 12.6733L17.2425 11.8083ZM7.91663 18.825C7.9169 18.8662 7.9294 18.9065 7.95254 18.9406C7.97568 18.9747 8.00842 19.0012 8.04663 19.0167L14.2958 21.55C14.3216 21.5617 14.3483 21.5717 14.375 21.5808V13.7708L7.91663 11.26V18.825ZM15.7041 21.55L21.9533 19.0167C21.9915 19.0012 22.0242 18.9747 22.0474 18.9406C22.0705 18.9065 22.083 18.8662 22.0833 18.825V11.2783L15.625 13.7717V21.58C15.6516 21.5708 15.6783 21.5608 15.7041 21.55Z" fill="#755129"/>
</svg>
