<svg width="16" height="16" viewBox="0 0 16 16" fill="none" xmlns="http://www.w3.org/2000/svg">
<mask id="mask0_3937_451" style="mask-type:alpha" maskUnits="userSpaceOnUse" x="0" y="0" width="16" height="16">
<rect width="16" height="16" fill="#D9D9D9"/>
</mask>
<g mask="url(#mask0_3937_451)">
<path d="M5.60033 11.1026L8.00033 8.70258L10.4003 11.1026L11.1028 10.4001L8.70283 8.00008L11.1028 5.60008L10.4003 4.89758L8.00033 7.29758L5.60033 4.89758L4.89783 5.60008L7.29783 8.00008L4.89783 10.4001L5.60033 11.1026ZM8.00149 14.3334C7.12549 14.3334 6.3021 14.1672 5.53133 13.8347C4.76055 13.5023 4.0901 13.0511 3.51999 12.4812C2.94988 11.9114 2.49849 11.2412 2.16583 10.4707C1.83327 9.7003 1.66699 8.87714 1.66699 8.00125C1.66699 7.12525 1.83321 6.30186 2.16566 5.53108C2.4981 4.7603 2.94927 4.08986 3.51916 3.51975C4.08905 2.94964 4.75921 2.49825 5.52966 2.16558C6.3001 1.83303 7.12327 1.66675 7.99916 1.66675C8.87516 1.66675 9.69855 1.83297 10.4693 2.16541C11.2401 2.49786 11.9105 2.94903 12.4807 3.51891C13.0508 4.0888 13.5022 4.75897 13.8348 5.52941C14.1674 6.29986 14.3337 7.12303 14.3337 7.99891C14.3337 8.87492 14.1674 9.6983 13.835 10.4691C13.5025 11.2399 13.0514 11.9103 12.4815 12.4804C11.9116 13.0505 11.2414 13.5019 10.471 13.8346C9.70055 14.1671 8.87738 14.3334 8.00149 14.3334ZM8.00033 13.3334C9.48921 13.3334 10.7503 12.8167 11.7837 11.7834C12.817 10.7501 13.3337 9.48897 13.3337 8.00008C13.3337 6.51119 12.817 5.25008 11.7837 4.21675C10.7503 3.18341 9.48921 2.66675 8.00033 2.66675C6.51144 2.66675 5.25033 3.18341 4.21699 4.21675C3.18366 5.25008 2.66699 6.51119 2.66699 8.00008C2.66699 9.48897 3.18366 10.7501 4.21699 11.7834C5.25033 12.8167 6.51144 13.3334 8.00033 13.3334Z" fill="#373940"/>
</g>
</svg>
