<svg width="16" height="16" viewBox="0 0 16 16" fill="none" xmlns="http://www.w3.org/2000/svg">
<mask id="mask0_3447_4021" style="mask-type:alpha" maskUnits="userSpaceOnUse" x="0" y="0" width="16" height="16">
<rect width="16" height="16" fill="#D9D9D9"/>
</mask>
<g mask="url(#mask0_3447_4021)">
<path d="M13.6668 4.8076V12.4614C13.6668 12.7982 13.5501 13.0832 13.3168 13.3166C13.0835 13.5499 12.7984 13.6666 12.4617 13.6666H3.53863C3.20187 13.6666 2.91683 13.5499 2.6835 13.3166C2.45016 13.0832 2.3335 12.7982 2.3335 12.4614V3.53839C2.3335 3.20163 2.45016 2.91659 2.6835 2.68325C2.91683 2.44992 3.20187 2.33325 3.53863 2.33325H11.1924L13.6668 4.8076ZM12.6668 5.23324L10.7668 3.33324H3.53863C3.4788 3.33324 3.42965 3.35247 3.39118 3.39094C3.35271 3.4294 3.33348 3.47855 3.33348 3.53839V12.4614C3.33348 12.5213 3.35271 12.5704 3.39118 12.6089C3.42965 12.6473 3.4788 12.6666 3.53863 12.6666H12.4617C12.5215 12.6666 12.5706 12.6473 12.6091 12.6089C12.6476 12.5704 12.6668 12.5213 12.6668 12.4614V5.23324ZM8.00015 11.5127C8.46168 11.5127 8.85484 11.3503 9.17961 11.0255C9.5044 10.7007 9.6668 10.3076 9.6668 9.84605C9.6668 9.38452 9.5044 8.99136 9.17961 8.66657C8.85484 8.34179 8.46168 8.1794 8.00015 8.1794C7.53861 8.1794 7.14546 8.34179 6.82068 8.66657C6.49589 8.99136 6.3335 9.38452 6.3335 9.84605C6.3335 10.3076 6.49589 10.7007 6.82068 11.0255C7.14546 11.3503 7.53861 11.5127 8.00015 11.5127ZM4.25658 6.58964H9.7309V4.25634H4.25658V6.58964Z" fill="white"/>
</g>
</svg>
