<svg width="16" height="16" viewBox="0 0 16 16" fill="none" xmlns="http://www.w3.org/2000/svg">
<mask id="mask0_3451_5028" style="mask-type:alpha" maskUnits="userSpaceOnUse" x="0" y="0" width="16" height="16">
<rect width="16" height="16" fill="#D9D9D9"/>
</mask>
<g mask="url(#mask0_3451_5028)">
<path d="M2.87213 13C2.53537 13 2.25033 12.8833 2.01699 12.65C1.78366 12.4166 1.66699 12.1316 1.66699 11.7948V4.20513C1.66699 3.86838 1.78366 3.58333 2.01699 3.35C2.25033 3.11667 2.53537 3 2.87213 3H5.91056V3.99998H2.87213C2.82084 3.99998 2.77382 4.02135 2.73108 4.06408C2.68834 4.10683 2.66698 4.15385 2.66698 4.20513V11.7948C2.66698 11.8461 2.68834 11.8931 2.73108 11.9359C2.77382 11.9786 2.82084 12 2.87213 12H13.1285C13.1798 12 13.2268 11.9786 13.2695 11.9359C13.3123 11.8931 13.3336 11.8461 13.3336 11.7948V4.20513C13.3336 4.15385 13.3123 4.10683 13.2695 4.06408C13.2268 4.02135 13.1798 3.99998 13.1285 3.99998H10.0901V3H13.1285C13.4652 3 13.7503 3.11667 13.9836 3.35C14.217 3.58333 14.3336 3.86838 14.3336 4.20513V11.7948C14.3336 12.1316 14.217 12.4166 13.9836 12.65C13.7503 12.8833 13.4652 13 13.1285 13H2.87213ZM8.00031 10.1L4.89776 6.99742L5.60031 6.29488L7.50033 8.19488V3H8.50029V8.19488L10.4003 6.29488L11.1029 6.99742L8.00031 10.1Z" fill="#373940"/>
</g>
</svg>
