<svg width="48" height="48" viewBox="0 0 48 48" fill="none" xmlns="http://www.w3.org/2000/svg">
<rect width="48" height="48" rx="24" fill="#FEDCDC"/>
<mask id="mask0_2731_998" style="mask-type:alpha" maskUnits="userSpaceOnUse" x="12" y="12" width="24" height="24">
<rect x="12" y="12" width="24" height="24" fill="#D9D9D9"/>
</mask>
<g mask="url(#mask0_2731_998)">
<path d="M20.108 31.9C19.6644 31.9 19.2855 31.743 18.9713 31.429C18.6573 31.1148 18.5003 30.7359 18.5003 30.2922V18.6H17.3003V17.3H21.6003V16.2155H26.4003V17.3H30.7003V18.6H29.5003V30.2815C29.5003 30.7438 29.3449 31.1291 29.034 31.4375C28.7232 31.7458 28.3427 31.9 27.8925 31.9H20.108ZM28.2003 18.6H19.8003V30.2922C19.8003 30.382 19.8291 30.4558 19.8868 30.5135C19.9445 30.5711 20.0182 30.6 20.108 30.6H27.8925C27.9695 30.6 28.04 30.5679 28.104 30.5037C28.1682 30.4397 28.2003 30.3692 28.2003 30.2922V18.6ZM22.0043 28.8H23.304V20.4H22.0043V28.8ZM24.6965 28.8H25.9963V20.4H24.6965V28.8Z" fill="#E15E5E"/>
</g>
</svg>
