<svg width="156" height="87" viewBox="0 0 156 87" fill="none" xmlns="http://www.w3.org/2000/svg">
<g clip-path="url(#clip0_3451_5105)">
<g opacity="0.84">
<path fill-rule="evenodd" clip-rule="evenodd" d="M136.681 14.2432C139.706 14.2432 142.158 16.7047 142.158 19.7411C142.158 22.7775 139.706 25.239 136.681 25.239H105.385C108.41 25.239 110.862 27.7005 110.862 30.7369C110.862 33.7733 108.41 36.2348 105.385 36.2348H122.598C125.623 36.2348 128.075 38.6963 128.075 41.7328C128.075 44.7692 125.623 47.2307 122.598 47.2307H114.638C110.824 47.2307 107.732 49.6922 107.732 52.7286C107.732 53.868 108.228 54.9466 109.219 55.9646C111.025 57.8187 114.09 57.8782 116.034 59.5873C117.18 60.5951 117.904 62.0749 117.904 63.7244C117.904 66.7608 115.451 69.2223 112.427 69.2223H47.4868C44.4621 69.2223 42.01 66.7608 42.01 63.7244C42.01 60.688 44.4621 58.2265 47.4868 58.2265H16.9729C13.9482 58.2265 11.4961 55.765 11.4961 52.7286C11.4961 49.6922 13.9482 47.2307 16.9729 47.2307H48.2692C51.294 47.2307 53.7461 44.7692 53.7461 41.7328C53.7461 38.6963 51.294 36.2348 48.2692 36.2348H28.7091C25.6843 36.2348 23.2322 33.7733 23.2322 30.7369C23.2322 27.7005 25.6843 25.239 28.7091 25.239H60.0054C56.9806 25.239 54.5285 22.7775 54.5285 19.7411C54.5285 16.7047 56.9806 14.2432 60.0054 14.2432H136.681ZM136.681 36.2348C139.706 36.2348 142.158 38.6963 142.158 41.7328C142.158 44.7692 139.706 47.2307 136.681 47.2307C133.657 47.2307 131.204 44.7692 131.204 41.7328C131.204 38.6963 133.657 36.2348 136.681 36.2348Z" fill="#F1F3F9"/>
<path fill-rule="evenodd" clip-rule="evenodd" d="M95.7381 14.2434L103.016 67.5282L103.67 72.874C103.88 74.5961 102.66 76.1636 100.945 76.3751L55.1269 82.0225C53.4114 82.2339 51.8499 81.0092 51.6392 79.2871L44.5852 21.6159C44.4799 20.7548 45.0899 19.9711 45.9477 19.8653C45.9531 19.8647 45.9585 19.864 45.9639 19.8633L49.7652 19.4354L95.7381 14.2434ZM52.8389 19.0893L56.4278 18.6851L52.8389 19.0893Z" fill="white"/>
<path d="M52.8389 19.0893L56.4278 18.6851M95.7381 14.2434L103.016 67.5282L103.67 72.874C103.88 74.5961 102.66 76.1636 100.945 76.3751L55.1269 82.0225C53.4114 82.2339 51.8499 81.0092 51.6392 79.2871L44.5852 21.6159C44.4799 20.7548 45.0899 19.9711 45.9477 19.8653C45.9531 19.8647 45.9585 19.864 45.9639 19.8633L49.7652 19.4354L95.7381 14.2434Z" stroke="#8393C6" stroke-width="2.5"/>
<path fill-rule="evenodd" clip-rule="evenodd" d="M93.7572 17.5963L100.345 65.8866L100.937 70.7312C101.128 72.292 100.037 73.7107 98.5011 73.9L57.4701 78.9574C55.9338 79.1467 54.5336 78.035 54.3427 76.4743L47.9661 24.3411C47.8608 23.48 48.4708 22.6963 49.3285 22.5905L54.4045 21.9649" fill="#F0F0FF"/>
<path fill-rule="evenodd" clip-rule="evenodd" d="M97.7391 4.22916H62.0951C61.5009 4.22916 60.963 4.47091 60.5737 4.86178C60.1843 5.25264 59.9435 5.79261 59.9435 6.38905V66.0807C59.9435 66.6772 60.1843 67.2171 60.5737 67.608C60.963 67.9989 61.5009 68.2406 62.0951 68.2406H108.257C108.851 68.2406 109.389 67.9989 109.779 67.608C110.168 67.2171 110.409 66.6772 110.409 66.0807V16.9411C110.409 16.368 110.182 15.8184 109.778 15.4133L99.26 4.8613C98.8566 4.45653 98.3095 4.22916 97.7391 4.22916Z" fill="white" stroke="#8393C6" stroke-width="2.5"/>
<path d="M98.0859 5.13461V14.2432C98.0859 15.5445 99.1368 16.5995 100.433 16.5995H106.64" stroke="#8393C6" stroke-width="2.5" stroke-linecap="round" stroke-linejoin="round"/>
<path d="M68.3535 56.6557H88.6961M68.3535 16.5995H88.6961H68.3535ZM68.3535 26.0245H101.997H68.3535ZM68.3535 36.2349H101.997H68.3535ZM68.3535 46.4453H101.997H68.3535Z" stroke="#8393C6" stroke-width="2.5" stroke-linecap="round" stroke-linejoin="round"/>
</g>
</g>
<defs>
<clipPath id="clip0_3451_5105">
<rect width="156" height="87" fill="white"/>
</clipPath>
</defs>
</svg>
