<svg width="18" height="18" viewBox="0 0 18 18" fill="none" xmlns="http://www.w3.org/2000/svg">
<path d="M4.33333 1.5H13.6667C15.2315 1.5 16.5 2.76853 16.5 4.33333V13.6667C16.5 15.2315 15.2315 16.5 13.6667 16.5H4.33333C2.76853 16.5 1.5 15.2315 1.5 13.6667V4.33333C1.5 2.76853 2.76853 1.5 4.33333 1.5Z" fill="#304BA0" stroke="#304BA0"/>
<path d="M13.6663 1.33325H4.33301C2.67615 1.33325 1.33301 2.6764 1.33301 4.33325V13.6666C1.33301 15.3234 2.67615 16.6666 4.33301 16.6666H13.6663C15.3232 16.6666 16.6663 15.3234 16.6663 13.6666V4.33325C16.6663 2.6764 15.3232 1.33325 13.6663 1.33325Z" stroke="#304BA0"/>
<path d="M11.3003 6.47148C11.4165 6.3639 11.5694 6.30526 11.7274 6.30769C11.8855 6.31013 12.0365 6.37345 12.1493 6.48456C12.2621 6.59566 12.328 6.74603 12.3333 6.90453C12.3386 7.06303 12.283 7.21752 12.178 7.33601L8.90837 11.444C8.85203 11.5048 8.78406 11.5535 8.70853 11.5873C8.633 11.6211 8.55145 11.6394 8.46875 11.6409C8.38605 11.6423 8.3039 11.6271 8.2272 11.5961C8.1505 11.565 8.08082 11.5187 8.02233 11.4601L5.84766 9.28479C5.79042 9.22742 5.745 9.15929 5.714 9.0843C5.68301 9.00931 5.66703 8.92894 5.66699 8.84775C5.66695 8.76657 5.68285 8.68618 5.71378 8.61116C5.7447 8.53614 5.79005 8.46797 5.84723 8.41054C5.90442 8.35311 5.97231 8.30754 6.04705 8.27644C6.12178 8.24534 6.20189 8.22931 6.2828 8.22927C6.36371 8.22923 6.44383 8.24518 6.51859 8.27621C6.59336 8.30724 6.6613 8.35274 6.71853 8.41012L8.43671 10.1333L11.286 6.49091L11.302 6.47316L11.3003 6.47148Z" fill="white"/>
</svg>
